<svg width="577" height="556" viewBox="0 0 577 556" fill="none" xmlns="http://www.w3.org/2000/svg">
<path d="M409.371 563.437H338.894C336.87 531.345 336.682 499.532 338.134 467.984L405.54 463.418H405.547C408.966 499.406 410.439 533.102 409.371 563.437Z" fill="#57D5D4"/>
<g style="mix-blend-mode:overlay">
<mask id="mask0_495_65734" style="mask-type:luminance" maskUnits="userSpaceOnUse" x="337" y="463" width="73" height="101">
<path d="M409.371 563.437H338.894C336.87 531.345 336.682 499.532 338.134 467.984L405.54 463.418H405.547C408.966 499.406 410.439 533.102 409.371 563.437Z" fill="white"/>
</mask>
<g mask="url(#mask0_495_65734)">
<mask id="mask1_495_65734" style="mask-type:luminance" maskUnits="userSpaceOnUse" x="407" y="374" width="61" height="97">
<path d="M467.432 374.97H407.871V470.849H467.432V374.97Z" fill="white"/>
</mask>
<g mask="url(#mask1_495_65734)">
<path d="M405.707 465.412C403.648 465.412 401.938 467.057 401.938 469.036C402.05 471.12 403.655 472.661 405.707 472.661C407.759 472.661 409.476 471.016 409.476 469.036C409.476 467.057 407.759 465.412 405.707 465.412Z" fill="#231F20"/>
</g>
<mask id="mask2_495_65734" style="mask-type:luminance" maskUnits="userSpaceOnUse" x="407" y="470" width="61" height="97">
<path d="M467.432 470.848H407.871V566.727H467.432V470.848Z" fill="white"/>
</mask>
<g mask="url(#mask2_495_65734)">
<path d="M412.791 559.095C413.021 559.206 413.363 558.983 413.363 558.655C413.817 554.815 409.134 544.937 405.707 543.397C403.879 542.519 403.195 543.181 402.964 544.052C402.734 544.931 402.964 545.809 403.648 546.359C405.365 548.004 409.818 552.507 412.107 558.871C412.219 559.088 412.449 559.199 412.791 559.095Z" fill="#58595B"/>
<path d="M406.049 555.143C405.023 555.143 404.22 555.909 404.22 556.899C404.22 557.889 405.023 558.656 406.049 558.656C407.075 558.656 407.878 557.889 407.878 556.899C407.878 555.909 407.075 555.143 406.049 555.143Z" fill="#58595B"/>
<path d="M404.597 517.543C402.671 518.198 402.685 519.132 403.188 519.899C403.69 520.666 404.507 521.119 405.393 521.021C407.815 520.98 414.285 521.021 420.643 523.858C420.887 523.935 421.124 523.851 421.285 523.538C421.529 523.454 421.599 523.064 421.355 522.841C418.793 519.857 408.136 516.24 404.604 517.543H404.597Z" fill="#58595B"/>
<path d="M409.602 508.921C409.462 510.008 410.125 511.082 411.109 511.688C413.803 513.27 420.601 517.885 425.354 525.329L426.526 523.371C424.558 517.739 417.188 508.475 412.966 507.464C410.369 506.886 409.657 507.91 409.602 508.921Z" fill="#231F20"/>
<path d="M415.024 473.162C415.024 473.05 414.794 473.162 414.689 473.385C411.702 478.167 407.312 481.213 405.616 482.237C404.939 482.579 404.611 483.248 404.625 484.015C404.639 484.67 405.107 485.325 406.705 484.963C409.776 484.245 415.227 477.003 415.499 473.706C415.499 473.49 415.373 473.266 415.031 473.169L415.024 473.162Z" fill="#58595B"/>
<path d="M407.026 489.243C405.309 489.278 403.969 490.623 404.004 492.268C404.039 493.913 405.435 495.203 407.152 495.168C408.869 495.133 410.209 493.788 410.174 492.143C410.027 490.498 408.624 489.208 407.026 489.243Z" fill="#414042"/>
<path d="M405.707 465.411C403.648 465.411 401.938 467.056 401.938 469.036C402.05 471.12 403.655 472.66 405.707 472.66C407.759 472.66 409.476 471.015 409.476 469.036C409.476 467.056 407.759 465.411 405.707 465.411Z" fill="#231F20"/>
</g>
<mask id="mask3_495_65734" style="mask-type:luminance" maskUnits="userSpaceOnUse" x="348" y="374" width="60" height="97">
<path d="M407.878 374.97H348.316V470.849H407.878V374.97Z" fill="white"/>
</mask>
<g mask="url(#mask3_495_65734)">
<path d="M374.817 469.607C372.89 470.262 372.904 471.196 373.407 471.963C373.909 472.73 374.726 473.183 375.612 473.085C378.034 473.043 384.504 473.085 390.862 475.922C391.106 475.999 391.344 475.915 391.504 475.602C391.748 475.518 391.818 475.128 391.574 474.905C389.012 471.921 378.355 468.304 374.824 469.607H374.817Z" fill="#58595B"/>
<path d="M397.988 459.653C398.218 458.949 397.96 458.259 397.388 457.722C396.892 457.262 396.083 457.123 395.217 458.461C393.57 461.054 395.029 469.872 397.262 472.395C397.43 472.549 397.674 472.618 397.988 472.458C398.072 472.535 398.148 472.298 398.065 472.068C396.669 466.659 397.541 461.521 397.988 459.646V459.653Z" fill="#414042"/>
<path d="M379.821 460.985C379.681 462.072 380.344 463.146 381.328 463.752C384.022 465.334 390.82 469.949 395.573 477.393L396.746 475.435C394.778 469.803 387.407 460.539 383.185 459.528C380.589 458.949 379.877 459.974 379.821 460.985Z" fill="#231F20"/>
<path d="M405.707 465.411C403.648 465.411 401.938 467.056 401.938 469.036C402.05 471.12 403.655 472.66 405.707 472.66C407.759 472.66 409.476 471.015 409.476 469.036C409.476 467.056 407.759 465.411 405.707 465.411Z" fill="#231F20"/>
<path d="M356.119 445.078C355.205 445.734 354.863 446.946 355.093 448.041C355.777 451.003 357.033 458.908 354.751 467.356L357.04 466.805C359.895 461.536 361.723 450.013 359.553 446.389C358.178 444.193 356.922 444.416 356.126 445.071L356.119 445.078Z" fill="#231F20"/>
<path d="M369.694 456.629C370.378 456.301 370.72 455.639 370.72 454.872C370.72 454.217 370.266 453.555 368.661 453.882C365.576 454.538 359.972 461.675 359.63 464.965C359.63 465.182 359.741 465.405 360.09 465.516C360.09 465.628 360.321 465.516 360.432 465.3C363.517 460.581 367.977 457.619 369.687 456.629H369.694Z" fill="#414042"/>
<path d="M346.146 465.412C344.087 465.412 342.377 467.057 342.377 469.036C342.489 471.12 344.094 472.661 346.146 472.661C348.198 472.661 349.914 471.016 349.914 469.036C349.914 467.057 348.198 465.412 346.146 465.412Z" fill="#231F20"/>
<path d="M369.254 465.76C367.195 465.802 365.52 467.482 365.562 469.454C365.604 471.427 367.356 473.044 369.408 473.002C371.467 472.961 373.142 471.281 373.1 469.308C372.939 467.224 371.306 465.718 369.254 465.76Z" fill="#231F20"/>
</g>
<mask id="mask4_495_65734" style="mask-type:luminance" maskUnits="userSpaceOnUse" x="348" y="470" width="60" height="97">
<path d="M407.878 470.848H348.316V566.727H407.878V470.848Z" fill="white"/>
</mask>
<g mask="url(#mask4_495_65734)">
<path d="M412.791 559.095C413.021 559.206 413.363 558.983 413.363 558.655C413.817 554.815 409.134 544.937 405.707 543.397C403.878 542.519 403.194 543.181 402.964 544.052C402.734 544.931 402.964 545.809 403.648 546.359C405.365 548.004 409.818 552.507 412.107 558.871C412.219 559.088 412.449 559.199 412.791 559.095Z" fill="#58595B"/>
<path d="M397.988 555.526C398.218 554.822 397.96 554.132 397.388 553.595C396.892 553.135 396.083 552.995 395.217 554.334C393.57 556.927 395.029 565.744 397.262 568.268C397.43 568.421 397.674 568.491 397.988 568.331C398.072 568.407 398.148 568.17 398.065 567.94C396.669 562.531 397.541 557.394 397.988 555.519V555.526Z" fill="#414042"/>
<path d="M379.821 556.857C379.681 557.944 380.344 559.018 381.328 559.624C384.022 561.207 390.82 565.821 395.573 573.265L396.746 571.307C394.778 565.675 387.407 556.411 383.185 555.4C380.589 554.822 379.877 555.846 379.821 556.857Z" fill="#231F20"/>
<path d="M406.049 555.142C405.023 555.142 404.22 555.909 404.22 556.899C404.22 557.888 405.023 558.655 406.049 558.655C407.075 558.655 407.877 557.888 407.877 556.899C407.877 555.909 407.075 555.142 406.049 555.142Z" fill="#58595B"/>
<path d="M387.407 547.405C386.221 548.59 386.256 550.451 387.484 551.594C388.796 552.661 390.736 552.626 391.846 551.518C393.033 550.333 392.998 548.472 391.769 547.328C390.534 546.185 388.594 546.22 387.407 547.405Z" fill="#414042"/>
<path d="M356.119 540.95C355.205 541.606 354.863 542.818 355.093 543.913C355.777 546.875 357.033 554.78 354.751 563.228L357.04 562.677C359.895 557.408 361.723 545.885 359.553 542.261C358.178 540.065 356.922 540.288 356.126 540.943L356.119 540.95Z" fill="#231F20"/>
<path d="M353.237 559.095C353.467 559.206 353.809 558.983 353.809 558.655C354.263 554.815 349.58 544.937 346.153 543.397C344.324 542.519 343.64 543.181 343.41 544.052C343.18 544.931 343.41 545.809 344.094 546.359C345.811 548.004 350.264 552.507 352.553 558.871C352.664 559.088 352.895 559.199 353.237 559.095Z" fill="#58595B"/>
<path d="M369.694 552.507C370.378 552.18 370.72 551.517 370.72 550.751C370.72 550.095 370.266 549.433 368.661 549.761C365.576 550.416 359.972 557.554 359.63 560.844C359.63 561.06 359.741 561.283 360.09 561.395C360.09 561.506 360.321 561.395 360.432 561.178C363.517 556.459 367.977 553.497 369.687 552.507H369.694Z" fill="#414042"/>
<path d="M368.438 539.556C366.721 539.556 365.353 540.874 365.353 542.519C365.464 544.164 366.839 545.481 368.438 545.481C370.154 545.481 371.522 544.164 371.522 542.519C371.522 540.874 370.147 539.556 368.438 539.556Z" fill="#414042"/>
<path d="M404.597 517.544C402.671 518.199 402.685 519.133 403.188 519.9C403.69 520.666 404.507 521.119 405.393 521.022C407.815 520.98 414.285 521.022 420.643 523.859C420.887 523.935 421.124 523.852 421.285 523.538C421.529 523.455 421.599 523.064 421.355 522.841C418.793 519.858 408.136 516.24 404.604 517.544H404.597Z" fill="#58595B"/>
<path d="M385.9 493.014C384.986 493.67 384.644 494.882 384.874 495.977C385.558 498.939 386.814 506.844 384.532 515.292L386.821 514.741C389.676 509.472 391.504 497.949 389.334 494.325C387.959 492.129 386.703 492.352 385.907 493.007L385.9 493.014Z" fill="#231F20"/>
<path d="M389.48 541.633C390.381 540.957 390.695 539.744 390.443 538.65C389.697 535.701 388.273 527.825 390.381 519.328L388.105 519.92C385.363 525.246 383.778 536.803 386.026 540.378C387.442 542.546 388.699 542.302 389.48 541.626V541.633Z" fill="#231F20"/>
<path d="M383.011 511.151C383.241 511.263 383.583 511.04 383.583 510.712C384.037 506.871 379.353 496.994 375.927 495.454C374.098 494.575 373.414 495.238 373.184 496.109C372.953 496.987 373.184 497.865 373.868 498.416C375.585 500.061 380.037 504.564 382.327 510.928C382.438 511.144 382.669 511.256 383.011 511.151Z" fill="#58595B"/>
<path d="M385.251 521.105C385.251 520.993 385.021 521.105 384.916 521.328C381.929 526.11 377.539 529.156 375.843 530.18C375.166 530.522 374.838 531.191 374.852 531.958C374.866 532.613 375.333 533.268 376.932 532.906C380.003 532.188 385.453 524.946 385.726 521.648C385.726 521.432 385.6 521.209 385.258 521.112L385.251 521.105Z" fill="#58595B"/>
<path d="M345.043 517.543C343.117 518.198 343.131 519.132 343.633 519.899C344.136 520.666 344.952 521.119 345.839 521.021C348.261 520.98 354.73 521.021 361.089 523.858C361.333 523.935 361.57 523.851 361.731 523.538C361.975 523.454 362.045 523.064 361.801 522.841C359.239 519.857 348.582 516.24 345.05 517.543H345.043Z" fill="#58595B"/>
<path d="M399.475 504.571C400.159 504.244 400.501 503.581 400.501 502.815C400.501 502.159 400.047 501.497 398.442 501.825C395.357 502.48 389.753 509.618 389.411 512.908C389.411 513.124 389.522 513.347 389.871 513.459C389.871 513.57 390.102 513.459 390.213 513.242C393.298 508.523 397.758 505.561 399.468 504.571H399.475Z" fill="#414042"/>
<path d="M401.562 535.827C399.81 534.217 395.259 529.805 392.845 523.482C392.726 523.266 392.496 523.162 392.154 523.273C391.923 523.169 391.581 523.392 391.588 523.726C391.211 527.574 396.104 537.361 399.566 538.831C401.415 539.675 402.085 538.999 402.294 538.12C402.504 537.242 402.26 536.364 401.562 535.827Z" fill="#414042"/>
<path d="M368.208 507.589C368.438 506.885 368.18 506.195 367.607 505.658C367.112 505.198 366.302 505.059 365.437 506.397C363.79 508.99 365.248 517.808 367.482 520.331C367.649 520.485 367.893 520.554 368.208 520.394C368.291 520.471 368.368 520.234 368.284 520.004C366.888 514.595 367.761 509.457 368.208 507.582V507.589Z" fill="#414042"/>
<path d="M350.04 508.921C349.901 510.008 350.564 511.082 351.548 511.688C354.242 513.27 361.04 517.885 365.793 525.329L366.965 523.371C364.997 517.739 357.627 508.475 353.404 507.464C350.808 506.886 350.096 507.91 350.04 508.921Z" fill="#231F20"/>
<path d="M376.269 507.199C375.243 507.199 374.44 507.966 374.44 508.956C374.44 509.946 375.243 510.712 376.269 510.712C377.295 510.712 378.097 509.946 378.097 508.956C378.097 507.966 377.295 507.199 376.269 507.199Z" fill="#58595B"/>
<path d="M398.902 523.58C397.877 523.601 397.088 524.382 397.109 525.371C397.13 526.361 397.946 527.114 398.972 527.093C399.998 527.072 400.787 526.292 400.766 525.302C400.745 524.312 399.928 523.559 398.902 523.58Z" fill="#58595B"/>
<path d="M354.081 525.455C353.37 526.166 353.39 527.254 354.13 527.937C354.87 528.62 356.001 528.606 356.713 527.888C357.425 527.177 357.404 526.09 356.664 525.407C355.924 524.723 354.793 524.737 354.081 525.455Z" fill="#58595B"/>
<path d="M398.211 491.613C396.495 491.613 395.127 492.931 395.127 494.576C395.238 496.221 396.613 497.538 398.211 497.538C399.928 497.538 401.296 496.221 401.296 494.576C401.296 492.931 399.921 491.613 398.211 491.613Z" fill="#414042"/>
<path d="M377.246 537.179C375.529 537.214 374.189 538.56 374.224 540.205C374.259 541.85 375.654 543.139 377.371 543.104C379.088 543.069 380.428 541.724 380.393 540.079C380.247 538.434 378.844 537.145 377.246 537.179Z" fill="#414042"/>
<path d="M357.627 499.469C356.44 500.654 356.475 502.515 357.704 503.658C359.016 504.725 360.956 504.69 362.066 503.582C363.252 502.397 363.217 500.536 361.989 499.392C360.754 498.249 358.813 498.284 357.627 499.469Z" fill="#414042"/>
<path d="M375.927 513.347C373.868 513.347 372.158 514.992 372.158 516.972C372.269 519.056 373.875 520.596 375.927 520.596C377.979 520.596 379.695 518.951 379.695 516.972C379.695 514.992 377.979 513.347 375.927 513.347Z" fill="#231F20"/>
<path d="M399.035 513.696C396.976 513.737 395.301 515.417 395.343 517.39C395.385 519.363 397.137 520.98 399.189 520.938C401.248 520.896 402.923 519.216 402.881 517.244C402.72 515.159 401.087 513.654 399.035 513.696Z" fill="#231F20"/>
<path d="M358.45 529.958C357.02 531.38 357.068 533.708 358.548 535.081C360.188 536.447 362.456 536.413 363.88 534.991C365.311 533.569 365.262 531.24 363.783 529.867C362.303 528.494 359.874 528.536 358.45 529.958Z" fill="#231F20"/>
<path d="M415.024 473.163C415.024 473.051 414.794 473.163 414.689 473.386C411.702 478.168 407.312 481.214 405.616 482.238C404.939 482.58 404.611 483.249 404.625 484.016C404.639 484.671 405.107 485.326 406.705 484.964C409.776 484.246 415.227 477.004 415.499 473.707C415.499 473.491 415.373 473.267 415.031 473.17L415.024 473.163Z" fill="#58595B"/>
<path d="M374.817 469.608C372.89 470.263 372.904 471.197 373.407 471.964C373.909 472.73 374.726 473.183 375.612 473.086C378.034 473.044 384.504 473.086 390.862 475.923C391.106 475.999 391.344 475.916 391.504 475.602C391.748 475.518 391.818 475.128 391.574 474.905C389.012 471.922 378.355 468.304 374.824 469.608H374.817Z" fill="#58595B"/>
<path d="M397.988 459.654C398.218 458.95 397.96 458.26 397.388 457.723C396.892 457.263 396.083 457.123 395.217 458.462C393.57 461.055 395.029 469.872 397.262 472.396C397.43 472.549 397.674 472.619 397.988 472.458C398.072 472.535 398.148 472.298 398.065 472.068C396.669 466.659 397.541 461.522 397.988 459.647V459.654Z" fill="#414042"/>
<path d="M379.821 460.985C379.681 462.073 380.344 463.146 381.328 463.753C384.022 465.335 390.82 469.949 395.573 477.394L396.746 475.435C394.778 469.803 387.407 460.539 383.185 459.529C380.589 458.95 379.877 459.975 379.821 460.985Z" fill="#231F20"/>
<path d="M383.862 477.519C383.15 478.23 383.171 479.317 383.911 480C384.65 480.683 385.781 480.669 386.493 479.951C387.205 479.241 387.184 478.153 386.444 477.47C385.704 476.787 384.574 476.801 383.862 477.519Z" fill="#58595B"/>
<path d="M407.026 489.243C405.309 489.278 403.969 490.623 404.004 492.268C404.039 493.913 405.435 495.203 407.152 495.168C408.868 495.133 410.209 493.788 410.174 492.143C410.027 490.498 408.624 489.208 407.026 489.243Z" fill="#414042"/>
<path d="M405.707 465.411C403.648 465.411 401.938 467.056 401.938 469.036C402.05 471.12 403.655 472.66 405.707 472.66C407.759 472.66 409.476 471.015 409.476 469.036C409.476 467.056 407.759 465.411 405.707 465.411Z" fill="#231F20"/>
<path d="M388.231 482.022C386.8 483.444 386.849 485.772 388.329 487.145C389.969 488.511 392.237 488.476 393.661 487.054C395.091 485.632 395.043 483.304 393.563 481.931C392.083 480.558 389.655 480.6 388.231 482.022Z" fill="#231F20"/>
<path d="M359.7 493.69C360.6 493.014 360.914 491.801 360.663 490.707C359.916 487.758 358.492 479.882 360.6 471.385L358.325 471.977C355.582 477.303 353.997 488.86 356.245 492.436C357.662 494.603 358.918 494.359 359.7 493.683V493.69Z" fill="#231F20"/>
<path d="M355.47 473.162C355.47 473.05 355.24 473.162 355.135 473.385C352.148 478.167 347.758 481.213 346.062 482.237C345.385 482.579 345.057 483.248 345.071 484.015C345.085 484.67 345.552 485.325 347.151 484.963C350.222 484.245 355.672 477.003 355.945 473.706C355.945 473.49 355.819 473.266 355.477 473.169L355.47 473.162Z" fill="#58595B"/>
<path d="M371.781 487.884C370.029 486.273 365.478 481.861 363.063 475.539C362.945 475.323 362.715 475.218 362.373 475.33C362.142 475.225 361.8 475.448 361.807 475.783C361.43 479.631 366.323 489.417 369.785 490.888C371.634 491.731 372.304 491.055 372.513 490.177C372.723 489.299 372.479 488.42 371.781 487.884Z" fill="#414042"/>
<path d="M369.122 475.644C368.096 475.665 367.307 476.446 367.328 477.435C367.349 478.425 368.165 479.178 369.191 479.157C370.217 479.136 371.006 478.356 370.985 477.366C370.964 476.376 370.148 475.623 369.122 475.644Z" fill="#58595B"/>
<path d="M347.465 489.243C345.748 489.278 344.408 490.623 344.443 492.268C344.478 493.913 345.873 495.203 347.59 495.168C349.307 495.133 350.647 493.788 350.612 492.143C350.466 490.498 349.063 489.208 347.465 489.243Z" fill="#414042"/>
<path d="M346.146 465.411C344.087 465.411 342.377 467.056 342.377 469.036C342.489 471.12 344.094 472.66 346.146 472.66C348.198 472.66 349.915 471.015 349.915 469.036C349.915 467.056 348.198 465.411 346.146 465.411Z" fill="#231F20"/>
<path d="M369.254 465.76C367.195 465.801 365.52 467.481 365.562 469.454C365.604 471.427 367.356 473.044 369.408 473.002C371.467 472.96 373.142 471.28 373.1 469.308C372.939 467.223 371.306 465.718 369.254 465.76Z" fill="#231F20"/>
</g>
<mask id="mask5_495_65734" style="mask-type:luminance" maskUnits="userSpaceOnUse" x="288" y="374" width="61" height="97">
<path d="M348.316 374.97H288.755V470.849H348.316V374.97Z" fill="white"/>
</mask>
<g mask="url(#mask5_495_65734)">
<path d="M338.427 459.653C338.657 458.949 338.399 458.259 337.826 457.722C337.331 457.262 336.521 457.123 335.656 458.461C334.009 461.054 335.467 469.872 337.701 472.395C337.868 472.549 338.112 472.618 338.427 472.458C338.51 472.535 338.587 472.298 338.503 472.068C337.107 466.659 337.98 461.521 338.427 459.646V459.653Z" fill="#414042"/>
<path d="M346.146 465.411C344.087 465.411 342.377 467.056 342.377 469.036C342.489 471.12 344.094 472.66 346.146 472.66C348.198 472.66 349.915 471.015 349.915 469.036C349.915 467.056 348.198 465.411 346.146 465.411Z" fill="#231F20"/>
</g>
<mask id="mask6_495_65734" style="mask-type:luminance" maskUnits="userSpaceOnUse" x="288" y="470" width="61" height="97">
<path d="M348.316 470.848H288.755V566.727H348.316V470.848Z" fill="white"/>
</mask>
<g mask="url(#mask6_495_65734)">
<path d="M353.236 559.095C353.467 559.206 353.809 558.983 353.809 558.655C354.262 554.815 349.579 544.937 346.153 543.397C344.324 542.519 343.64 543.181 343.41 544.052C343.179 544.931 343.41 545.809 344.094 546.359C345.811 548.004 350.263 552.507 352.553 558.871C352.664 559.088 352.895 559.199 353.236 559.095Z" fill="#58595B"/>
<path d="M338.426 555.526C338.657 554.822 338.399 554.132 337.826 553.595C337.331 553.135 336.521 552.995 335.656 554.334C334.009 556.927 335.467 565.744 337.701 568.268C337.868 568.421 338.112 568.491 338.426 568.331C338.51 568.407 338.587 568.17 338.503 567.94C337.107 562.531 337.98 557.394 338.426 555.519V555.526Z" fill="#414042"/>
<path d="M346.487 555.142C345.462 555.142 344.659 555.909 344.659 556.899C344.659 557.888 345.462 558.655 346.487 558.655C347.513 558.655 348.316 557.888 348.316 556.899C348.316 555.909 347.513 555.142 346.487 555.142Z" fill="#58595B"/>
<path d="M345.043 517.544C343.117 518.199 343.131 519.133 343.633 519.9C344.136 520.666 344.952 521.119 345.839 521.022C348.26 520.98 354.73 521.022 361.088 523.859C361.333 523.935 361.57 523.852 361.73 523.538C361.975 523.455 362.045 523.064 361.8 522.841C359.239 519.858 348.581 516.24 345.05 517.544H345.043Z" fill="#58595B"/>
<path d="M339.913 504.571C340.597 504.244 340.939 503.581 340.939 502.815C340.939 502.159 340.485 501.497 338.88 501.825C335.795 502.48 330.191 509.618 329.849 512.908C329.849 513.124 329.961 513.347 330.31 513.459C330.31 513.57 330.54 513.459 330.652 513.242C333.736 508.523 338.196 505.561 339.906 504.571H339.913Z" fill="#414042"/>
<path d="M342 535.827C340.248 534.217 335.698 529.805 333.283 523.482C333.164 523.266 332.934 523.162 332.592 523.273C332.362 523.169 332.02 523.392 332.027 523.726C331.65 527.574 336.542 537.361 340.004 538.831C341.853 539.675 342.523 538.999 342.733 538.12C342.942 537.242 342.698 536.364 342 535.827Z" fill="#414042"/>
<path d="M339.341 523.58C338.315 523.601 337.526 524.382 337.547 525.371C337.568 526.361 338.385 527.114 339.411 527.093C340.437 527.072 341.225 526.292 341.204 525.302C341.184 524.312 340.367 523.559 339.341 523.58Z" fill="#58595B"/>
<path d="M338.657 491.613C336.94 491.613 335.572 492.931 335.572 494.576C335.684 496.221 337.059 497.538 338.657 497.538C340.374 497.538 341.742 496.221 341.742 494.576C341.742 492.931 340.367 491.613 338.657 491.613Z" fill="#414042"/>
<path d="M339.48 513.696C337.422 513.737 335.747 515.417 335.788 517.39C335.83 519.363 337.582 520.98 339.634 520.938C341.693 520.896 343.368 519.216 343.326 517.244C343.166 515.159 341.532 513.654 339.48 513.696Z" fill="#231F20"/>
<path d="M355.47 473.163C355.47 473.051 355.24 473.163 355.135 473.386C352.148 478.168 347.758 481.214 346.062 482.238C345.385 482.58 345.057 483.249 345.071 484.016C345.085 484.671 345.552 485.326 347.151 484.964C350.221 484.246 355.672 477.004 355.945 473.707C355.945 473.491 355.819 473.267 355.477 473.17L355.47 473.163Z" fill="#58595B"/>
<path d="M338.426 459.654C338.657 458.95 338.399 458.26 337.826 457.723C337.331 457.263 336.521 457.123 335.656 458.462C334.009 461.055 335.467 469.872 337.701 472.396C337.868 472.549 338.112 472.619 338.426 472.458C338.51 472.535 338.587 472.298 338.503 472.068C337.107 466.659 337.98 461.522 338.426 459.647V459.654Z" fill="#414042"/>
<path d="M347.465 489.243C345.748 489.278 344.408 490.623 344.443 492.268C344.478 493.913 345.873 495.203 347.59 495.168C349.307 495.133 350.647 493.788 350.612 492.143C350.466 490.498 349.063 489.208 347.465 489.243Z" fill="#414042"/>
<path d="M346.146 465.411C344.087 465.411 342.377 467.056 342.377 469.036C342.488 471.12 344.094 472.66 346.146 472.66C348.198 472.66 349.914 471.015 349.914 469.036C349.914 467.056 348.198 465.411 346.146 465.411Z" fill="#231F20"/>
</g>
</g>
</g>
<path d="M410.041 564.134H338.238L338.196 563.479C336.221 532.105 335.963 499.964 337.436 467.949L337.464 467.328L406.168 462.672L406.238 463.348C409.797 500.807 411.081 534.489 410.062 563.458L410.041 564.127V564.134ZM339.543 562.74H408.687C409.657 534.154 408.387 500.996 404.905 464.157L338.79 468.639C337.359 500.18 337.61 531.833 339.536 562.74H339.543Z" fill="#13367D"/>
<path d="M338.894 564.134H292.007V563.444C291.589 526.424 294.464 496.297 300.794 471.343C300.892 470.967 301.269 470.744 301.639 470.841C302.016 470.939 302.239 471.315 302.141 471.685C295.881 496.367 293.019 526.152 293.382 562.733H338.887C339.271 562.733 339.585 563.047 339.585 563.43C339.585 563.813 339.271 564.127 338.887 564.127L338.894 564.134Z" fill="#13367D"/>
<path d="M476.715 564.134H409.371C408.987 564.134 408.673 563.82 408.673 563.437C408.673 563.053 408.987 562.74 409.371 562.74H475.242C474.705 552.96 468.577 448.055 448.867 351.618L448.811 351.339L448.965 351.102C449.167 350.796 468.898 319.324 467.572 219.444L430.428 210.334C430.114 215.889 427.378 247.703 404.863 294.293L386.144 325.807L385.851 325.876C385.718 325.904 372.088 329.083 353.851 336.332C321.795 349.081 279.808 372.453 261.836 411.383C252.644 431.291 251.374 446.723 258.06 457.256C267.042 471.406 287.966 472.298 292.07 472.333H292.154C292.712 472.333 293.264 472.27 293.801 472.145C295.302 471.789 296.628 470.974 297.626 469.796L309.121 456.196C309.602 455.632 309.972 454.969 310.223 454.244C311.089 451.693 310.126 448.849 307.892 447.337L293.515 437.655C293.194 437.439 293.11 437.007 293.326 436.686C293.543 436.365 293.976 436.282 294.297 436.498L308.674 446.18C311.431 448.041 312.617 451.547 311.549 454.691C311.242 455.583 310.789 456.391 310.195 457.095L298.701 470.695C297.514 472.103 295.93 473.072 294.136 473.504C293.494 473.657 292.831 473.734 292.168 473.734H292.077C287.841 473.699 266.261 472.765 256.895 458.009C249.936 447.051 251.178 431.172 260.58 410.805C278.747 371.456 321.055 347.889 353.348 335.042C370.217 328.337 383.178 325.096 385.265 324.587L403.648 293.638C428.215 242.809 429.081 209.769 429.088 209.442L429.102 208.57L468.968 218.343V218.88C469.714 271.535 464.571 304.846 460.132 323.513C455.714 342.076 451.205 350.12 450.305 351.604C470.88 452.39 476.638 562.294 476.694 563.395L476.729 564.127L476.715 564.134Z" fill="#13367D"/>
<path d="M281.776 472.215C281.622 472.215 281.476 472.166 281.343 472.068C281.036 471.831 280.987 471.392 281.224 471.092L303.056 443.196C303.293 442.897 303.733 442.841 304.033 443.078C304.34 443.315 304.389 443.754 304.151 444.054L282.32 471.95C282.18 472.124 281.978 472.215 281.769 472.215H281.776Z" fill="#13367D"/>
<path d="M332.599 454.502C332.355 454.502 332.118 454.37 331.985 454.147L319.904 432.434L334.728 408.818L322.73 401.066L343.822 339.273C343.947 338.911 344.345 338.709 344.708 338.841C345.071 338.967 345.266 339.364 345.141 339.726L324.398 400.488L336.633 408.399L321.516 432.482L333.199 453.477C333.388 453.812 333.262 454.237 332.927 454.425C332.822 454.488 332.704 454.516 332.592 454.516L332.599 454.502Z" fill="#13367D"/>
<path d="M405.533 464.115C405.449 464.115 405.365 464.101 405.288 464.066C404.925 463.926 404.744 463.529 404.884 463.167L425.403 409.111L408.185 390.479L421.815 373.282L391.421 314.835C391.246 314.494 391.379 314.075 391.721 313.894C392.063 313.72 392.481 313.852 392.663 314.194L423.476 373.443L410.027 390.416L427.022 408.804L406.196 463.668C406.091 463.947 405.826 464.122 405.54 464.122L405.533 464.115Z" fill="#13367D"/>
<path d="M405.54 464.115C405.184 464.115 404.877 463.843 404.849 463.48C400.989 422.905 394.317 376.419 385.007 325.319C384.937 324.942 385.188 324.58 385.565 324.51C385.949 324.44 386.305 324.691 386.375 325.068C395.692 376.203 402.371 422.731 406.231 463.341C406.266 463.724 405.986 464.066 405.603 464.101C405.582 464.101 405.561 464.101 405.533 464.101L405.54 464.115Z" fill="#13367D"/>
<path d="M338.134 468.68C338.134 468.68 338.113 468.68 338.099 468.68C337.715 468.659 337.415 468.339 337.436 467.955C339.411 424.864 344.617 380.323 352.902 335.579C352.958 335.245 353.244 334.994 353.593 334.994C353.977 334.994 354.291 335.3 354.291 335.691L354.277 335.823C345.999 380.511 340.8 424.989 338.832 468.018C338.818 468.394 338.503 468.68 338.134 468.68Z" fill="#13367D"/>
<path d="M338.887 454.503C338.531 454.503 338.224 454.231 338.189 453.868C338.155 453.485 338.441 453.144 338.825 453.109L403.893 447.177C404.277 447.135 404.618 447.428 404.653 447.811C404.688 448.195 404.402 448.536 404.018 448.571L338.95 454.503C338.95 454.503 338.908 454.503 338.887 454.503Z" fill="#13367D"/>
<path d="M326.568 459.792L326.792 459.575L339.34 447.37C340.478 446.262 342.293 446.262 343.43 447.363C344.024 447.942 344.324 448.709 344.324 449.475C344.324 450.179 344.072 450.883 343.556 451.448L337.121 458.474L364.347 455.581C365.932 455.414 367.355 456.529 367.572 458.098C367.593 458.23 367.6 458.363 367.6 458.488C367.6 459.91 366.574 461.151 365.143 461.388L346.376 464.497L365.129 468.944C366.671 469.306 367.648 470.84 367.32 472.387C367.034 473.767 365.82 474.729 364.452 474.729C364.284 474.729 364.11 474.708 363.936 474.68L342.132 470.833L361.967 480.236C363.398 480.919 364.033 482.613 363.391 484.063C362.91 485.164 361.835 485.819 360.704 485.819C360.334 485.819 359.964 485.75 359.601 485.603L328.697 473.098L347.08 487.792C348.058 488.573 348.239 489.988 347.485 490.984C347.032 491.591 346.341 491.905 345.636 491.905C345.168 491.905 344.701 491.765 344.296 491.479L321.613 475.419L316.86 472.053" fill="white"/>
<path d="M345.636 492.602C345.008 492.602 344.408 492.414 343.891 492.051L316.455 472.625C316.141 472.402 316.065 471.97 316.288 471.656C316.511 471.342 316.944 471.266 317.258 471.489L344.694 490.915C345.392 491.403 346.418 491.243 346.92 490.574C347.451 489.87 347.325 488.894 346.641 488.343L328.257 473.649C328.257 473.649 328.244 473.642 328.237 473.636C328.237 473.636 328.216 473.615 328.202 473.601C328.062 473.461 327.992 473.28 327.992 473.099C327.992 472.925 328.062 472.743 328.195 472.611C328.418 472.388 328.753 472.346 329.011 472.485L359.86 484.969C360.969 485.416 362.275 484.872 362.749 483.798C363.245 482.683 362.763 481.408 361.66 480.878L341.825 471.475C341.511 471.328 341.351 470.966 341.462 470.631C341.574 470.297 341.902 470.095 342.251 470.157L364.054 474.005C364.18 474.026 364.32 474.04 364.452 474.04C365.506 474.04 366.42 473.287 366.637 472.255C366.888 471.084 366.134 469.906 364.969 469.634L346.215 465.187C345.894 465.111 345.671 464.818 345.678 464.483C345.692 464.149 345.936 463.877 346.264 463.821L365.031 460.712C366.12 460.531 366.902 459.604 366.902 458.503C366.902 458.412 366.902 458.314 366.881 458.217C366.713 457.004 365.632 456.161 364.417 456.286L337.191 459.179C336.898 459.207 336.626 459.06 336.493 458.802C336.36 458.544 336.402 458.231 336.598 458.015L343.033 450.988C343.41 450.577 343.619 450.04 343.619 449.483C343.619 448.869 343.375 448.298 342.935 447.873C342.063 447.029 340.695 447.029 339.822 447.88L327.05 460.301C326.771 460.566 326.331 460.566 326.066 460.287C325.801 460.008 325.808 459.569 326.08 459.304L326.303 459.088L338.852 446.883C340.269 445.503 342.495 445.496 343.912 446.876C344.624 447.573 345.015 448.5 345.015 449.49C345.015 450.396 344.68 451.26 344.066 451.929L338.873 457.596L364.264 454.899C366.232 454.683 367.984 456.063 368.256 458.015C368.284 458.175 368.291 458.342 368.291 458.503C368.291 460.287 367.014 461.8 365.248 462.092L349.9 464.637L365.283 468.282C367.181 468.728 368.402 470.645 367.998 472.548C367.649 474.228 366.155 475.441 364.445 475.441C364.264 475.441 364.068 475.42 363.817 475.385L347.095 472.437L362.261 479.623C364.047 480.481 364.822 482.558 364.026 484.363C363.447 485.68 362.142 486.538 360.704 486.538C360.237 486.538 359.776 486.447 359.343 486.273L332.857 475.559L347.52 487.277C348.805 488.301 349.035 490.128 348.044 491.431C347.478 492.191 346.599 492.63 345.636 492.63V492.602Z" fill="#13367D"/>
<path d="M327.42 458.955C327.343 458.955 327.266 458.942 327.19 458.921L310.991 453.344C310.628 453.219 310.432 452.821 310.558 452.459C310.684 452.097 311.081 451.901 311.444 452.027L327.643 457.603C328.006 457.729 328.202 458.126 328.076 458.488C327.978 458.781 327.706 458.955 327.413 458.955H327.42Z" fill="#13367D"/>
<path d="M298.149 470.248C302.929 472.353 311.43 473.517 318.57 473.266L298.149 470.248Z" fill="white"/>
<path d="M316.602 473.998C309.637 473.998 302.162 472.778 297.87 470.889C297.514 470.736 297.36 470.324 297.514 469.969C297.667 469.62 298.079 469.46 298.435 469.613C302.971 471.614 311.242 472.827 318.549 472.569C318.947 472.555 319.261 472.855 319.268 473.238C319.282 473.621 318.982 473.949 318.598 473.956C317.942 473.977 317.272 473.991 316.609 473.991L316.602 473.998Z" fill="#13367D"/>
<path d="M185.008 323.841C183.703 323.841 182.446 323.109 181.818 321.868L178.468 315.26C178.077 314.487 178.336 313.56 179.075 313.107L187.36 307.983C188.532 307.258 190.082 307.572 190.877 308.701L198.094 318.913C198.317 319.227 198.24 319.666 197.926 319.882C197.612 320.105 197.18 320.028 196.956 319.715L189.74 309.503C189.37 308.98 188.644 308.827 188.1 309.168L179.815 314.299C179.696 314.368 179.655 314.522 179.717 314.64L183.067 321.248C183.584 322.273 184.791 322.726 185.824 322.287C186.836 321.855 187.297 320.704 186.864 319.673L185.14 315.497C184.994 315.142 185.161 314.731 185.517 314.584C185.873 314.438 186.285 314.605 186.431 314.961L188.155 319.136C188.881 320.886 188.093 322.83 186.369 323.562C185.929 323.751 185.461 323.841 185.008 323.841Z" fill="#13367D"/>
<path d="M439.633 135.43C439.529 135.43 439.417 135.402 439.319 135.353C438.977 135.179 438.838 134.76 439.012 134.419L440.904 130.711C441.56 129.421 442.69 128.473 444.079 128.048C445.468 127.623 446.927 127.776 448.197 128.48C449.998 129.498 450.856 132.035 450.661 133.917C450.619 134.3 450.284 134.572 449.893 134.537C449.509 134.495 449.23 134.154 449.272 133.771C449.418 132.363 448.755 130.39 447.548 129.707C446.585 129.17 445.503 129.059 444.484 129.372C443.458 129.686 442.628 130.383 442.146 131.331L440.255 135.039C440.129 135.283 439.885 135.423 439.633 135.423V135.43Z" fill="#13367D"/>
<path d="M461.821 218.008C461.821 218.008 461.751 218.008 461.716 218.001C461.332 217.946 461.074 217.59 461.13 217.207C462.728 206.424 462.917 195.745 461.688 185.47C461.556 184.39 461.849 183.33 462.512 182.487C463.824 180.807 466.399 177.482 468.933 174.074L469.149 173.795C471.285 170.902 472.848 168.706 473.923 167.075C476.052 163.841 476.624 160.105 476.729 157.54C476.77 156.522 476.743 155.72 476.708 155.225C476.68 154.842 476.973 154.507 477.357 154.48C477.741 154.459 478.076 154.744 478.104 155.128C478.138 155.658 478.173 156.515 478.124 157.595C478.013 160.335 477.399 164.336 475.095 167.842C473.972 169.543 472.332 171.857 470.07 174.91L469.854 175.196C467.376 178.514 464.899 181.713 463.621 183.351C463.189 183.902 463 184.599 463.084 185.31C464.326 195.71 464.138 206.514 462.526 217.416C462.477 217.764 462.177 218.008 461.835 218.008H461.821Z" fill="#13367D"/>
<path d="M327.127 26.3135C326.743 26.3135 326.429 25.9999 326.429 25.6165V0.697047C326.429 0.313671 326.743 0 327.127 0C327.511 0 327.825 0.313671 327.825 0.697047V25.6165C327.825 25.9999 327.511 26.3135 327.127 26.3135Z" fill="#13367D"/>
<path d="M293.438 31.5483C293.208 31.5483 292.978 31.4298 292.845 31.2207L279.689 10.0514C279.487 9.72378 279.584 9.29161 279.912 9.08947C280.24 8.88732 280.673 8.98491 280.875 9.31252L294.031 30.4818C294.234 30.8094 294.136 31.2416 293.808 31.4438C293.696 31.5135 293.564 31.5483 293.438 31.5483Z" fill="#13367D"/>
<path d="M235.363 91.9127C234.979 91.9127 234.672 91.606 234.665 91.2226C234.665 90.8392 234.973 90.5256 235.356 90.5186L260.3 90.2886C260.684 90.2886 260.991 90.5953 260.998 90.9787C260.998 91.362 260.691 91.6757 260.307 91.6827L235.363 91.9127Z" fill="#13367D"/>
<path d="M272.493 59.2071C272.382 59.2071 272.27 59.1792 272.165 59.1234L250.18 47.3433C249.838 47.1621 249.713 46.7369 249.894 46.4023C250.076 46.0607 250.501 45.9353 250.836 46.1165L272.821 57.8966C273.163 58.0778 273.289 58.503 273.107 58.8376C272.982 59.0746 272.738 59.2071 272.493 59.2071Z" fill="#13367D"/>
<path d="M252.847 136.245C252.616 136.245 252.386 136.133 252.253 135.924C252.044 135.597 252.142 135.171 252.47 134.962L273.54 121.628C273.868 121.419 274.294 121.516 274.503 121.844C274.713 122.171 274.615 122.597 274.287 122.806L253.216 136.14C253.098 136.217 252.972 136.252 252.847 136.252V136.245Z" fill="#13367D"/>
<path d="M372.325 283.636L350.578 298.26C350.089 296.866 349.824 295.367 349.824 293.806C349.824 286.327 355.889 280.262 363.378 280.262C366.805 280.262 369.938 281.538 372.325 283.636Z" fill="#13367D"/>
<path d="M350.215 299.34L349.915 298.49C349.391 296.991 349.119 295.409 349.119 293.806C349.119 285.957 355.512 279.565 363.371 279.565C366.832 279.565 370.175 280.827 372.779 283.113L373.456 283.712L350.208 299.347L350.215 299.34ZM363.378 280.959C356.287 280.959 350.522 286.724 350.522 293.806C350.522 294.949 350.668 296.071 350.968 297.158L371.16 283.58C368.926 281.886 366.197 280.959 363.378 280.959Z" fill="#13367D"/>
<path d="M363.378 308.039C357.32 308.039 351.911 304.198 349.922 298.489L349.747 297.98L372.388 282.757L372.793 283.112C375.878 285.81 377.644 289.706 377.644 293.805C377.644 301.654 371.25 308.039 363.385 308.039H363.378ZM351.422 298.531C353.356 303.403 358.094 306.645 363.378 306.645C370.469 306.645 376.241 300.887 376.241 293.805C376.241 290.285 374.796 286.932 372.262 284.52L351.429 298.531H351.422Z" fill="#13367D"/>
<path d="M349.873 323.674V298.97C349.873 298.587 350.187 298.273 350.571 298.273C350.955 298.273 351.269 298.587 351.269 298.97V321.729L376.234 313.302V293.798C376.234 293.415 376.548 293.101 376.932 293.101C377.315 293.101 377.629 293.415 377.629 293.798V314.305L349.873 323.674Z" fill="#13367D"/>
<path d="M222.166 465.781C221.942 465.781 221.719 465.781 221.489 465.767C213.246 465.397 203.768 457.953 201.172 442.179C198.108 428.133 189.195 360.61 188.749 352.043C188.588 348.99 187.576 347.338 186.411 345.421C184.24 341.867 181.539 337.44 182.6 322.524C182.628 322.14 182.963 321.854 183.347 321.875C183.73 321.903 184.024 322.238 183.996 322.621C182.97 337.099 185.538 341.316 187.611 344.697C188.825 346.683 189.977 348.565 190.151 351.967C190.598 360.513 199.49 427.868 202.554 441.914C205.031 456.956 213.881 464.024 221.565 464.373C227.986 464.658 233.158 460.302 235.056 452.983C240.654 427.234 210.636 359.467 207.195 351.827C206.797 350.949 206.699 349.952 206.923 349.018L213.323 321.889C213.93 319.303 213.86 316.585 213.113 314.047L211.948 310.081C211.306 307.879 210.147 305.808 208.598 304.094L197.173 291.456C196.914 291.17 196.935 290.731 197.221 290.473C197.508 290.215 197.947 290.236 198.206 290.522L209.631 303.16C211.32 305.028 212.583 307.286 213.288 309.691L214.453 313.657C215.263 316.431 215.34 319.387 214.677 322.21L208.277 349.339C208.123 349.973 208.193 350.656 208.465 351.256C214.111 363.796 241.994 427.638 236.417 453.31C234.407 461.069 228.991 465.781 222.179 465.781H222.166Z" fill="#13367D"/>
<path d="M181.406 302.874C181.071 302.874 180.771 302.63 180.715 302.281L180.171 298.782C179.941 297.339 180.541 295.91 181.734 295.053L188.581 290.153C188.895 289.93 189.328 289.999 189.558 290.313C189.782 290.627 189.712 291.059 189.398 291.282L182.551 296.182C181.797 296.726 181.406 297.66 181.546 298.566L182.09 302.065C182.146 302.449 181.888 302.804 181.511 302.86C181.476 302.86 181.441 302.867 181.406 302.867V302.874Z" fill="#13367D"/>
<path d="M206.985 310.06C206.783 310.06 206.588 309.977 206.448 309.809L195.051 296.071C194.611 295.548 193.85 295.422 193.271 295.785L181.469 303.215C181.211 303.376 181.071 303.675 181.113 303.975L181.497 306.84C181.546 307.223 181.281 307.572 180.897 307.621C180.513 307.669 180.164 307.404 180.115 307.021L179.731 304.156C179.62 303.32 180.01 302.483 180.729 302.037L192.531 294.607C193.704 293.868 195.246 294.119 196.133 295.178L207.53 308.917C207.774 309.21 207.732 309.656 207.439 309.9C207.307 310.004 207.153 310.06 206.992 310.06H206.985Z" fill="#13367D"/>
<path d="M202.742 315.393C202.533 315.393 202.33 315.302 202.191 315.128L192.28 302.553C192.127 302.358 191.847 302.288 191.624 302.407L180.82 307.718C180.45 307.927 180.262 308.401 180.387 308.847L181.497 312.667C181.602 313.036 181.392 313.42 181.023 313.531C180.653 313.636 180.262 313.427 180.157 313.057L179.047 309.238C178.74 308.171 179.194 307.042 180.164 306.491L191.01 301.159C191.827 300.761 192.825 300.985 193.383 301.696L203.293 314.27C203.531 314.57 203.482 315.009 203.175 315.246C203.049 315.344 202.896 315.393 202.742 315.393Z" fill="#13367D"/>
<path d="M206.343 247.626H180.332C179.508 247.626 178.845 248.288 178.845 249.111V275.09C178.845 275.912 179.508 276.574 180.332 276.574H189V290.717L191.324 289.051C192.908 287.915 195.1 288.145 196.412 289.595L197.675 290.996V276.574H206.343C207.167 276.574 207.83 275.912 207.83 275.09V249.111C207.83 248.288 207.167 247.626 206.343 247.626ZM200.348 269.102H186.327V255.098H200.348V269.102Z" fill="#FFB019"/>
<path d="M206.343 247.626H180.332C179.508 247.626 178.845 248.288 178.845 249.111V249.682H205.366C205.694 249.682 205.96 249.947 205.96 250.275V276.574H206.343C207.167 276.574 207.83 275.912 207.83 275.09V249.111C207.83 248.288 207.167 247.626 206.343 247.626Z" fill="#FFE1AD"/>
<path d="M193.334 241.833C192.95 241.833 192.636 241.52 192.636 241.136V233.308C192.636 232.925 192.95 232.611 193.334 232.611C193.718 232.611 194.032 232.925 194.032 233.308V241.136C194.032 241.52 193.718 241.833 193.334 241.833Z" fill="#13367D"/>
<path d="M180.297 241.834C180.004 241.834 179.738 241.653 179.634 241.36L177.107 233.95C176.982 233.588 177.177 233.19 177.54 233.065C177.903 232.939 178.301 233.135 178.426 233.497L180.953 240.907C181.078 241.269 180.883 241.666 180.52 241.792C180.443 241.82 180.367 241.827 180.297 241.827V241.834Z" fill="#13367D"/>
<path d="M170.777 250.072C170.693 250.072 170.616 250.058 170.533 250.03L163.19 247.284C162.827 247.151 162.646 246.747 162.779 246.385C162.911 246.022 163.316 245.841 163.679 245.973L171.021 248.72C171.384 248.852 171.566 249.257 171.433 249.619C171.328 249.898 171.063 250.072 170.777 250.072Z" fill="#13367D"/>
<path d="M206.371 241.833C206.294 241.833 206.218 241.819 206.148 241.799C205.785 241.673 205.59 241.276 205.715 240.913L208.242 233.504C208.367 233.141 208.765 232.939 209.128 233.072C209.491 233.197 209.686 233.594 209.561 233.957L207.034 241.366C206.937 241.659 206.664 241.84 206.371 241.84V241.833Z" fill="#13367D"/>
<path d="M215.891 250.072C215.605 250.072 215.34 249.898 215.235 249.619C215.102 249.257 215.284 248.859 215.647 248.72L222.989 245.973C223.352 245.841 223.75 246.022 223.889 246.385C224.022 246.747 223.841 247.144 223.478 247.284L216.135 250.03C216.052 250.058 215.975 250.072 215.891 250.072Z" fill="#13367D"/>
<path d="M229.347 408.985C229.131 408.985 228.922 408.888 228.782 408.7C228.552 408.386 228.621 407.954 228.936 407.724L232.935 404.81C232.872 376.998 225.132 354.915 209.938 339.169C209.673 338.89 209.68 338.451 209.959 338.186C210.238 337.921 210.678 337.928 210.943 338.207C226.458 354.281 234.331 376.81 234.331 405.165V405.521L229.759 408.853C229.633 408.943 229.494 408.985 229.347 408.985Z" fill="#13367D"/>
<path d="M104.418 464.917C92.0434 464.917 82.3701 461.515 75.6211 454.775C57.5726 436.749 59.6455 409.543 64.5659 389.893C70.261 367.142 81.7978 346.412 89.7612 338.458C107.726 320.516 125.314 312.863 148.583 312.863C154.822 312.863 167.413 313.678 181.665 319.136C182.028 319.276 182.202 319.68 182.069 320.035C181.93 320.398 181.525 320.572 181.169 320.44C167.127 315.058 154.731 314.257 148.59 314.257C125.726 314.257 108.431 321.792 90.7522 339.441C82.8098 347.374 71.3568 368.536 65.9269 390.228C61.0972 409.529 59.0313 436.219 76.6122 453.785C93.2159 470.368 125.586 462.575 149.811 453.116C176.214 442.806 198.938 428.322 199.169 428.182C199.497 427.973 199.922 428.071 200.132 428.391C200.341 428.712 200.244 429.144 199.922 429.353C199.692 429.5 176.87 444.047 150.342 454.405C134.729 460.504 120.903 463.983 109.24 464.749C107.593 464.861 105.988 464.91 104.432 464.91L104.418 464.917Z" fill="#13367D"/>
<path d="M100.823 425.08C100.782 425.08 100.74 425.08 100.698 425.066C100.321 424.996 100.063 424.634 100.132 424.257L101.696 415.579L62.8629 401.115C62.5 400.983 62.3186 400.579 62.4512 400.216C62.5838 399.854 62.9886 399.673 63.3515 399.805L102.729 414.471C103.043 414.589 103.231 414.917 103.175 415.245L101.514 424.501C101.452 424.836 101.158 425.073 100.83 425.073L100.823 425.08Z" fill="#13367D"/>
<path d="M93.9906 425.08H93.6905C93.3066 425.08 92.9925 424.767 92.9925 424.383C92.9925 424 93.3066 423.686 93.6905 423.686H93.9906C123.785 423.686 157.984 416.785 195.637 403.179C196 403.047 196.398 403.235 196.53 403.597C196.663 403.96 196.475 404.357 196.112 404.49C158.305 418.152 123.946 425.08 93.9836 425.08H93.9906Z" fill="#13367D"/>
<path d="M166.191 282.826L161.271 279.669C160.51 279.181 159.624 278.923 158.724 278.923H144.933C144.018 278.923 143.118 279.195 142.35 279.697L136.655 283.426C137.458 275.968 143.788 270.161 151.465 270.161C159.142 270.161 165.124 275.661 166.191 282.826Z" fill="#13367D"/>
<path d="M136.655 284.123C136.529 284.123 136.404 284.088 136.292 284.019C136.062 283.879 135.936 283.614 135.964 283.35C136.816 275.431 143.481 269.464 151.465 269.464C159.449 269.464 165.759 275.166 166.882 282.722C166.924 282.994 166.799 283.259 166.568 283.412C166.338 283.559 166.045 283.559 165.815 283.412L160.894 280.255C160.245 279.843 159.498 279.62 158.724 279.62H144.933C144.151 279.62 143.39 279.85 142.734 280.283L137.039 284.012C136.92 284.088 136.788 284.123 136.655 284.123ZM151.465 270.858C144.716 270.858 139 275.543 137.597 281.976L141.966 279.112C142.853 278.533 143.879 278.226 144.933 278.226H158.724C159.764 278.226 160.776 278.519 161.648 279.084L165.172 281.342C163.525 275.264 157.9 270.858 151.465 270.858Z" fill="#13367D"/>
<path d="M151.465 300.622C142.867 300.622 135.866 293.631 135.866 285.043C135.866 284.444 135.894 283.886 135.964 283.343C136.006 282.959 136.355 282.687 136.739 282.729C137.123 282.778 137.395 283.12 137.353 283.503C137.297 283.991 137.269 284.493 137.269 285.037C137.269 292.857 143.641 299.221 151.472 299.221C159.303 299.221 165.668 292.857 165.668 285.037C165.668 284.319 165.612 283.615 165.507 282.924C165.452 282.541 165.71 282.186 166.094 282.13C166.471 282.067 166.834 282.332 166.889 282.715C167.008 283.468 167.064 284.256 167.064 285.037C167.064 293.624 160.071 300.615 151.472 300.615L151.465 300.622Z" fill="#13367D"/>
<path d="M227.679 531.742H73.0388V451.673C73.0388 451.289 73.3529 450.976 73.7368 450.976C74.1206 450.976 74.4347 451.289 74.4347 451.673V530.348H226.283V464.219C226.283 463.836 226.597 463.522 226.981 463.522C227.365 463.522 227.679 463.836 227.679 464.219V531.742Z" fill="#13367D"/>
<path d="M221.279 563.437H79.4388L84.429 531.045H216.289L221.279 563.437Z" fill="#57D5D4"/>
<g style="mix-blend-mode:overlay">
<mask id="mask7_495_65734" style="mask-type:luminance" maskUnits="userSpaceOnUse" x="79" y="531" width="143" height="33">
<path d="M221.279 563.437H79.4388L84.429 531.045H216.289L221.279 563.437Z" fill="white"/>
</mask>
<g mask="url(#mask7_495_65734)">
<mask id="mask8_495_65734" style="mask-type:luminance" maskUnits="userSpaceOnUse" x="169" y="470" width="61" height="97">
<path d="M229.194 470.848H169.632V566.727H229.194V470.848Z" fill="white"/>
</mask>
<g mask="url(#mask8_495_65734)">
<path d="M219.311 555.526C219.541 554.822 219.283 554.132 218.711 553.595C218.215 553.135 217.406 552.995 216.54 554.334C214.893 556.927 216.352 565.744 218.585 568.268C218.753 568.421 218.997 568.491 219.311 568.331C219.395 568.407 219.472 568.17 219.388 567.94C217.992 562.531 218.864 557.394 219.311 555.519V555.526Z" fill="#414042"/>
<path d="M201.144 556.857C201.004 557.944 201.667 559.018 202.651 559.624C205.345 561.207 212.143 565.821 216.896 573.265L218.069 571.307C216.101 565.675 208.73 556.411 204.508 555.4C201.912 554.822 201.2 555.846 201.144 556.857Z" fill="#231F20"/>
<path d="M208.731 547.405C207.544 548.59 207.579 550.451 208.807 551.594C210.119 552.661 212.06 552.626 213.169 551.518C214.356 550.333 214.321 548.472 213.093 547.328C211.857 546.185 209.917 546.22 208.731 547.405Z" fill="#414042"/>
<path d="M177.442 540.95C176.528 541.606 176.186 542.818 176.416 543.913C177.1 546.875 178.357 554.78 176.074 563.228L178.364 562.677C181.218 557.408 183.047 545.885 180.876 542.261C179.501 540.065 178.245 540.288 177.449 540.943L177.442 540.95Z" fill="#231F20"/>
<path d="M174.553 559.095C174.783 559.206 175.125 558.983 175.125 558.655C175.579 554.815 170.896 544.937 167.469 543.397C165.64 542.519 164.956 543.181 164.726 544.052C164.496 544.931 164.726 545.809 165.41 546.359C167.127 548.004 171.58 552.507 173.869 558.871C173.981 559.088 174.211 559.199 174.553 559.095Z" fill="#58595B"/>
<path d="M191.01 552.507C191.694 552.18 192.036 551.517 192.036 550.751C192.036 550.095 191.582 549.433 189.977 549.761C186.892 550.416 181.288 557.554 180.946 560.844C180.946 561.06 181.058 561.283 181.407 561.395C181.407 561.506 181.637 561.395 181.749 561.178C184.833 556.459 189.293 553.497 191.003 552.507H191.01Z" fill="#414042"/>
<path d="M167.811 555.143C166.785 555.143 165.982 555.909 165.982 556.899C165.982 557.889 166.785 558.656 167.811 558.656C168.837 558.656 169.639 557.889 169.639 556.899C169.639 555.909 168.837 555.143 167.811 555.143Z" fill="#58595B"/>
<path d="M189.754 539.556C188.037 539.556 186.669 540.874 186.669 542.519C186.781 544.164 188.155 545.481 189.754 545.481C191.471 545.481 192.839 544.164 192.839 542.519C192.839 540.874 191.464 539.556 189.754 539.556Z" fill="#414042"/>
<path d="M210.803 541.633C211.704 540.957 212.018 539.744 211.766 538.65C211.02 535.701 209.596 527.825 211.704 519.328L209.428 519.92C206.685 525.246 205.101 536.803 207.348 540.378C208.765 542.546 210.022 542.302 210.803 541.626V541.633Z" fill="#231F20"/>
<path d="M206.567 521.105C206.567 520.993 206.337 521.105 206.232 521.328C203.245 526.11 198.855 529.156 197.159 530.18C196.482 530.522 196.154 531.191 196.168 531.958C196.182 532.613 196.649 533.268 198.247 532.906C201.318 532.188 206.769 524.946 207.041 521.648C207.041 521.432 206.916 521.209 206.574 521.112L206.567 521.105Z" fill="#58595B"/>
<path d="M222.884 535.827C221.133 534.217 216.582 529.805 214.167 523.482C214.049 523.266 213.818 523.162 213.476 523.273C213.246 523.169 212.904 523.392 212.911 523.726C212.534 527.574 217.427 537.361 220.888 538.831C222.738 539.675 223.408 538.999 223.617 538.12C223.827 537.242 223.582 536.364 222.884 535.827Z" fill="#414042"/>
<path d="M198.562 537.179C196.845 537.214 195.505 538.56 195.54 540.205C195.574 541.85 196.97 543.139 198.687 543.104C200.404 543.069 201.744 541.724 201.709 540.079C201.563 538.434 200.16 537.145 198.562 537.179Z" fill="#414042"/>
<path d="M179.773 529.958C178.343 531.38 178.392 533.708 179.871 535.081C181.511 536.447 183.78 536.413 185.203 534.991C186.634 533.569 186.585 531.24 185.106 529.867C183.626 528.494 181.197 528.536 179.773 529.958Z" fill="#231F20"/>
</g>
<mask id="mask9_495_65734" style="mask-type:luminance" maskUnits="userSpaceOnUse" x="110" y="470" width="60" height="97">
<path d="M169.632 470.848H110.071V566.727H169.632V470.848Z" fill="white"/>
</mask>
<g mask="url(#mask9_495_65734)">
<path d="M174.553 559.095C174.783 559.206 175.125 558.983 175.125 558.655C175.579 554.815 170.896 544.937 167.469 543.397C165.64 542.519 164.956 543.181 164.726 544.052C164.496 544.931 164.726 545.809 165.41 546.359C167.127 548.004 171.58 552.507 173.869 558.871C173.98 559.088 174.211 559.199 174.553 559.095Z" fill="#58595B"/>
<path d="M159.75 555.526C159.98 554.822 159.722 554.132 159.149 553.595C158.654 553.135 157.844 552.995 156.979 554.334C155.332 556.927 156.79 565.744 159.024 568.268C159.191 568.421 159.436 568.491 159.75 568.331C159.833 568.407 159.91 568.17 159.826 567.94C158.431 562.531 159.303 557.394 159.75 555.519V555.526Z" fill="#414042"/>
<path d="M141.582 556.857C141.443 557.944 142.106 559.018 143.09 559.624C145.784 561.207 152.582 565.821 157.335 573.265L158.507 571.307C156.539 565.675 149.169 556.411 144.946 555.4C142.35 554.822 141.638 555.846 141.582 556.857Z" fill="#231F20"/>
<path d="M167.811 555.142C166.785 555.142 165.982 555.909 165.982 556.899C165.982 557.888 166.785 558.655 167.811 558.655C168.837 558.655 169.639 557.888 169.639 556.899C169.639 555.909 168.837 555.142 167.811 555.142Z" fill="#58595B"/>
<path d="M149.169 547.405C147.983 548.59 148.017 550.451 149.246 551.594C150.558 552.661 152.498 552.626 153.608 551.518C154.794 550.333 154.76 548.472 153.531 547.328C152.296 546.185 150.356 546.22 149.169 547.405Z" fill="#414042"/>
<path d="M117.881 540.95C116.967 541.606 116.625 542.818 116.855 543.913C117.539 546.875 118.795 554.78 116.513 563.228L118.802 562.677C121.657 557.408 123.485 545.885 121.315 542.261C119.94 540.065 118.683 540.288 117.888 540.943L117.881 540.95Z" fill="#231F20"/>
<path d="M114.991 559.095C115.222 559.206 115.564 558.983 115.564 558.655C116.017 554.815 111.334 544.937 107.907 543.397C106.079 542.519 105.395 543.181 105.165 544.052C104.934 544.931 105.165 545.809 105.849 546.359C107.565 548.004 112.018 552.507 114.307 558.871C114.419 559.088 114.649 559.199 114.991 559.095Z" fill="#58595B"/>
<path d="M131.449 552.507C132.133 552.18 132.475 551.517 132.475 550.751C132.475 550.095 132.021 549.433 130.416 549.761C127.331 550.416 121.726 557.554 121.384 560.844C121.384 561.06 121.496 561.283 121.845 561.395C121.845 561.506 122.075 561.395 122.187 561.178C125.272 556.459 129.732 553.497 131.442 552.507H131.449Z" fill="#414042"/>
<path d="M108.249 555.143C107.223 555.143 106.421 555.909 106.421 556.899C106.421 557.889 107.223 558.656 108.249 558.656C109.275 558.656 110.078 557.889 110.078 556.899C110.078 555.909 109.275 555.143 108.249 555.143Z" fill="#58595B"/>
<path d="M130.192 539.556C128.475 539.556 127.107 540.874 127.107 542.519C127.219 544.164 128.594 545.481 130.192 545.481C131.909 545.481 133.277 544.164 133.277 542.519C133.277 540.874 131.902 539.556 130.192 539.556Z" fill="#414042"/>
<path d="M151.242 541.633C152.142 540.957 152.456 539.744 152.205 538.65C151.458 535.701 150.035 527.825 152.142 519.328L149.867 519.92C147.124 525.246 145.54 536.803 147.787 540.378C149.204 542.546 150.46 542.302 151.242 541.626V541.633Z" fill="#231F20"/>
<path d="M147.006 521.105C147.006 520.993 146.775 521.105 146.671 521.328C143.683 526.11 139.293 529.156 137.597 530.18C136.92 530.522 136.592 531.191 136.606 531.958C136.62 532.613 137.088 533.268 138.686 532.906C141.757 532.188 147.208 524.946 147.48 521.648C147.48 521.432 147.354 521.209 147.013 521.112L147.006 521.105Z" fill="#58595B"/>
<path d="M163.323 535.827C161.571 534.217 157.021 529.805 154.606 523.482C154.487 523.266 154.257 523.162 153.915 523.273C153.685 523.169 153.343 523.392 153.35 523.726C152.973 527.574 157.865 537.361 161.327 538.831C163.177 539.675 163.847 538.999 164.056 538.12C164.265 537.242 164.021 536.364 163.323 535.827Z" fill="#414042"/>
<path d="M139 537.179C137.284 537.214 135.943 538.56 135.978 540.205C136.013 541.85 137.409 543.139 139.126 543.104C140.843 543.069 142.183 541.724 142.148 540.079C142.002 538.434 140.599 537.145 139 537.179Z" fill="#414042"/>
<path d="M120.212 529.958C118.781 531.38 118.83 533.708 120.31 535.081C121.95 536.447 124.218 536.413 125.642 534.991C127.073 533.569 127.024 531.24 125.544 529.867C124.065 528.494 121.636 528.536 120.212 529.958Z" fill="#231F20"/>
</g>
<mask id="mask10_495_65734" style="mask-type:luminance" maskUnits="userSpaceOnUse" x="50" y="470" width="61" height="97">
<path d="M110.071 470.848H50.5097V566.727H110.071V470.848Z" fill="white"/>
</mask>
<g mask="url(#mask10_495_65734)">
<path d="M114.991 559.095C115.222 559.206 115.564 558.983 115.564 558.655C116.017 554.815 111.334 544.937 107.907 543.397C106.079 542.519 105.395 543.181 105.164 544.052C104.934 544.931 105.164 545.809 105.848 546.359C107.565 548.004 112.018 552.507 114.307 558.871C114.419 559.088 114.649 559.199 114.991 559.095Z" fill="#58595B"/>
<path d="M100.188 555.526C100.419 554.822 100.16 554.132 99.588 553.595C99.0924 553.135 98.2828 552.995 97.4174 554.334C95.7703 556.927 97.229 565.744 99.4623 568.268C99.6298 568.421 99.8741 568.491 100.188 568.331C100.272 568.407 100.349 568.17 100.265 567.94C98.8691 562.531 99.7415 557.394 100.188 555.519V555.526Z" fill="#414042"/>
<path d="M82.021 556.857C81.8814 557.944 82.5444 559.018 83.5285 559.624C86.2225 561.207 93.0204 565.821 97.7733 573.265L98.9458 571.307C96.9776 565.675 89.6075 556.411 85.385 555.4C82.7887 554.822 82.0768 555.846 82.021 556.857Z" fill="#231F20"/>
<path d="M108.249 555.142C107.223 555.142 106.421 555.909 106.421 556.899C106.421 557.888 107.223 558.655 108.249 558.655C109.275 558.655 110.078 557.888 110.078 556.899C110.078 555.909 109.275 555.142 108.249 555.142Z" fill="#58595B"/>
<path d="M89.6076 547.405C88.4211 548.59 88.456 550.451 89.6844 551.594C90.9965 552.661 92.9368 552.626 94.0465 551.518C95.2329 550.333 95.1981 548.472 93.9697 547.328C92.7344 546.185 90.7941 546.22 89.6076 547.405Z" fill="#414042"/>
<path d="M91.6804 541.633C92.5807 540.957 92.8948 539.744 92.6435 538.65C91.8967 535.701 90.4729 527.825 92.5807 519.328L90.3054 519.92C87.5626 525.246 85.9783 536.803 88.2256 540.378C89.6424 542.546 90.8987 542.302 91.6804 541.626V541.633Z" fill="#231F20"/>
<path d="M87.451 521.105C87.451 520.993 87.2206 521.105 87.116 521.328C84.1288 526.11 79.7388 529.156 78.0429 530.18C77.3659 530.522 77.0378 531.191 77.0518 531.958C77.0658 532.613 77.5334 533.268 79.1316 532.906C82.2025 532.188 87.6534 524.946 87.9256 521.648C87.9256 521.432 87.7999 521.209 87.4579 521.112L87.451 521.105Z" fill="#58595B"/>
<path d="M103.762 535.827C102.01 534.217 97.4592 529.805 95.0444 523.482C94.9258 523.266 94.6955 523.162 94.3535 523.273C94.1231 523.169 93.7812 523.392 93.7881 523.726C93.4113 527.574 98.3037 537.361 101.765 538.831C103.615 539.675 104.285 538.999 104.494 538.12C104.704 537.242 104.459 536.364 103.762 535.827Z" fill="#414042"/>
<path d="M79.4458 537.179C77.7289 537.214 76.3889 538.56 76.4238 540.205C76.4587 541.85 77.8545 543.139 79.5714 543.104C81.2883 543.069 82.6284 541.724 82.5935 540.079C82.4469 538.434 81.0441 537.145 79.4458 537.179Z" fill="#414042"/>
</g>
</g>
</g>
<path d="M222.096 564.134H78.6223L83.8288 530.348H216.889L222.096 564.134ZM80.2554 562.74H220.47L215.696 531.742H85.0293L80.2554 562.74Z" fill="#13367D"/>
<path d="M150.362 564.134C149.979 564.134 149.664 563.82 149.664 563.437V550.625C149.664 550.242 149.979 549.928 150.362 549.928C150.746 549.928 151.06 550.242 151.06 550.625V563.437C151.06 563.82 150.746 564.134 150.362 564.134Z" fill="#13367D"/>
<path d="M64.4682 513.354C64.0844 513.354 63.7703 513.04 63.7703 512.657V482.761C63.7703 482.377 64.0844 482.063 64.4682 482.063C64.8521 482.063 65.1662 482.377 65.1662 482.761V512.657C65.1662 513.04 64.8521 513.354 64.4682 513.354Z" fill="#13367D"/>
<path d="M55.1159 509.082C54.732 509.082 54.4179 508.768 54.4179 508.385V487.919C54.4179 487.536 54.732 487.222 55.1159 487.222C55.4997 487.222 55.8138 487.536 55.8138 487.919V508.385C55.8138 508.768 55.4997 509.082 55.1159 509.082Z" fill="#13367D"/>
<path d="M426.045 234.417C425.675 234.417 425.368 234.124 425.347 233.755C425.326 233.371 425.626 233.044 426.01 233.023L468.291 231.002C468.667 230.981 469.002 231.28 469.023 231.664C469.044 232.047 468.744 232.375 468.36 232.396L426.08 234.417C426.08 234.417 426.059 234.417 426.045 234.417Z" fill="#13367D"/>
<path d="M61.0343 379.591L65.5499 387L73.4086 383.222L73.1434 391.873L81.8535 392.953L76.8982 400.077L83.6891 405.702L75.614 409.006L78.329 417.42L69.6956 415.823L67.4832 424.383L61.0343 418.368L54.5854 424.383L52.366 415.823L43.7326 417.42L46.4545 409.006L38.3795 405.702L45.1634 400.077L40.215 392.953L48.9182 391.873L48.66 383.222L56.5187 387L61.0343 379.591Z" fill="white"/>
<path d="M67.4832 425.08C67.3087 425.08 67.1412 425.017 67.0086 424.892L61.0343 419.322L55.0601 424.892C54.8786 425.059 54.6274 425.122 54.3901 425.052C54.1528 424.982 53.9713 424.794 53.9085 424.557L51.8566 416.625L43.8653 418.103C43.621 418.144 43.3767 418.061 43.2162 417.879C43.0557 417.698 42.9998 417.44 43.0766 417.203L45.5961 409.403L38.1213 406.343C37.898 406.253 37.7305 406.044 37.6956 405.807C37.6607 405.563 37.7514 405.319 37.9398 405.165L44.2352 399.951L39.6498 393.35C39.5102 393.148 39.4892 392.89 39.587 392.667C39.6847 392.444 39.894 392.291 40.1383 392.263L48.2134 391.259L47.9761 383.243C47.9691 382.999 48.0877 382.769 48.2901 382.637C48.4925 382.504 48.7508 382.49 48.9741 382.595L56.2605 386.094L60.4481 379.228C60.6993 378.81 61.3903 378.81 61.6415 379.228L65.8291 386.094L73.1155 382.595C73.3319 382.49 73.5971 382.504 73.7995 382.637C74.0019 382.769 74.1275 382.999 74.1136 383.243L73.8763 391.259L81.9513 392.263C82.1956 392.291 82.405 392.444 82.5027 392.667C82.6004 392.89 82.5795 393.148 82.4399 393.35L77.8545 399.951L84.1498 405.165C84.3382 405.319 84.429 405.563 84.3941 405.807C84.3592 406.051 84.1987 406.253 83.9683 406.343L76.4935 409.403L79.013 417.203C79.0898 417.433 79.034 417.691 78.8734 417.879C78.7129 418.061 78.4617 418.151 78.2244 418.103L70.2331 416.625L68.1812 424.557C68.1183 424.794 67.9369 424.982 67.6996 425.052C67.6368 425.073 67.567 425.08 67.5042 425.08H67.4832ZM61.0343 417.67C61.2088 417.67 61.3763 417.733 61.5089 417.859L67.0994 423.072L69.0257 415.649C69.1164 415.293 69.4653 415.07 69.8283 415.14L77.3101 416.52L74.9511 409.222C74.8394 408.874 75.0139 408.504 75.3489 408.365L82.3491 405.5L76.4586 400.621C76.1794 400.391 76.1236 399.986 76.333 399.687L80.6252 393.511L73.0667 392.57C72.7107 392.528 72.4455 392.214 72.4525 391.859L72.6758 384.352L65.8501 387.628C65.529 387.781 65.1382 387.669 64.9497 387.363L61.0274 380.936L57.105 387.363C56.9166 387.669 56.5327 387.781 56.2047 387.628L49.3789 384.352L49.6023 391.859C49.6162 392.221 49.351 392.528 48.9881 392.57L41.4295 393.511L45.7218 399.687C45.9311 399.986 45.8753 400.391 45.5961 400.621L39.7056 405.5L46.7058 408.365C47.0408 408.504 47.2153 408.881 47.1037 409.222L44.7447 416.52L52.2265 415.14C52.5824 415.07 52.9384 415.293 53.0291 415.649L54.9554 423.072L60.5458 417.859C60.6784 417.733 60.8529 417.67 61.0204 417.67H61.0343Z" fill="#13367D"/>
<path d="M472.248 204.708L476.135 211.073L482.891 207.831L482.668 215.269L490.15 216.196L485.892 222.323L491.727 227.16L484.783 229.997L487.121 237.233L479.702 235.86L477.796 243.213L472.248 238.041L466.706 243.213L464.801 235.86L457.382 237.233L459.713 229.997L452.776 227.16L458.61 222.323L454.353 216.196L461.835 215.269L461.611 207.831L468.367 211.073L472.248 204.708Z" fill="#FF5050"/>
<path d="M151.528 295.123C148.387 295.123 144.472 294.147 142.916 291.401C142.727 291.066 142.846 290.641 143.181 290.453C143.516 290.265 143.942 290.383 144.13 290.718C145.17 292.551 148.08 293.736 151.528 293.736C154.976 293.736 157.886 292.551 158.926 290.718C159.115 290.383 159.54 290.265 159.875 290.453C160.21 290.641 160.329 291.066 160.141 291.401C158.577 294.147 154.669 295.123 151.528 295.123Z" fill="#13367D"/>
<path d="M561.757 180.633L552.524 197.815L538.663 190.384L547.889 173.202L534.022 165.771L524.795 182.954L369.603 99.789L380.763 79.01C382.124 76.4728 381.175 73.3082 378.627 71.949L318.745 39.8569C316.205 38.4977 313.036 39.4457 311.675 41.9899L279.542 101.797C278.181 104.334 279.131 107.498 281.678 108.858L341.56 140.95C344.101 142.309 347.269 141.361 348.63 138.817L360.774 116.218L515.966 199.383L529.834 206.814L557.563 221.675L564.996 207.845L575.625 188.063L561.757 180.633ZM336.061 116.846L304.835 100.11C303.46 99.3708 302.944 97.67 303.684 96.2968L320.441 65.1109C321.181 63.7378 322.884 63.2219 324.259 63.9608L355.484 80.6969C356.859 81.4358 357.375 83.1366 356.636 84.5097L339.878 115.696C339.139 117.069 337.436 117.585 336.061 116.846Z" fill="#57D5D4"/>
<path d="M313.741 41.0213L373.623 73.1134C376.164 74.4726 377.12 77.6372 375.759 80.1745L364.599 100.953L523.944 186.244L525.549 183.261L369.61 99.7963L380.77 79.0174C382.131 76.4801 381.182 73.3155 378.635 71.9563L318.752 39.8642C316.742 38.7908 314.348 39.1602 312.764 40.6171C313.099 40.7146 313.427 40.8541 313.748 41.0213H313.741Z" fill="#9AE6E5"/>
<path d="M542.886 174.366L533.659 191.549L547.52 198.972L549.118 195.989L538.663 190.392L547.897 173.209L534.029 165.779L532.431 168.762L542.886 174.366Z" fill="#9AE6E5"/>
<path d="M561.758 180.633L560.152 183.616L570.614 189.22L559.985 209.01L554.157 219.856L557.563 221.682L564.996 207.852L575.625 188.07L561.758 180.633Z" fill="#9AE6E5"/>
<path d="M549.118 195.989L552.608 197.669L560.152 183.616L563.858 185.603L554.862 202.785L547.52 198.972" fill="#9AE6E5"/>
<path d="M557.849 222.623L361.068 117.167L349.259 139.152C348.512 140.546 347.263 141.563 345.755 142.017C344.241 142.47 342.642 142.309 341.246 141.563L281.364 109.471C278.489 107.931 277.407 104.341 278.949 101.469L311.082 41.6627C311.829 40.2686 313.078 39.2509 314.585 38.7978C316.1 38.3447 317.698 38.5051 319.094 39.2509L378.976 71.343C381.852 72.8834 382.941 76.4732 381.391 79.3451L370.559 99.5037L524.523 182.013L533.749 164.831L548.846 172.924L539.619 190.106L552.252 196.874L561.485 179.692L576.581 187.785L557.863 222.63L557.849 222.623ZM360.495 115.278L557.277 220.734L574.676 188.349L562.037 181.574L552.803 198.756L537.714 190.67L546.94 173.488L534.301 166.72L525.074 183.902L368.654 100.075L380.149 78.6829C381.328 76.4872 380.498 73.7408 378.3 72.5628L318.417 40.4707C317.349 39.8992 316.128 39.7807 314.969 40.1292C313.811 40.4777 312.862 41.2584 312.289 42.3179L280.157 102.125C278.977 104.32 279.808 107.067 282.006 108.245L341.888 140.337C342.956 140.908 344.178 141.027 345.336 140.678C346.495 140.33 347.444 139.549 348.016 138.489L360.488 115.278H360.495ZM337.387 117.878C336.828 117.878 336.256 117.745 335.733 117.46L304.507 100.723C303.677 100.277 303.077 99.5385 302.804 98.6393C302.532 97.7401 302.63 96.7921 303.07 95.9627L319.82 64.7768C320.734 63.069 322.877 62.4208 324.58 63.3409L355.805 80.077C356.636 80.5231 357.236 81.2619 357.508 82.1611C357.78 83.0603 357.683 84.0083 357.243 84.8378L340.493 116.024C339.857 117.202 338.643 117.878 337.387 117.878ZM336.389 116.233C337.422 116.783 338.706 116.4 339.264 115.368L356.015 84.1826C356.28 83.6807 356.343 83.1091 356.175 82.5654C356.015 82.0217 355.645 81.5756 355.149 81.3107L323.924 64.5746C322.891 64.024 321.607 64.4073 321.048 65.439L304.298 96.6248C304.033 97.1267 303.97 97.6983 304.137 98.242C304.298 98.7857 304.668 99.2318 305.163 99.4967L336.389 116.233Z" fill="#13367D"/>
<path d="M454.576 168.079C456.475 169.131 458.841 168.441 459.929 166.524L469.756 149.154C471.089 146.791 470.259 143.759 467.921 142.469C465.583 141.18 462.672 142.135 461.5 144.588L452.88 162.628C451.931 164.621 452.678 167.033 454.583 168.079H454.576Z" fill="white"/>
<path d="M456.482 169.271C455.728 169.271 454.953 169.083 454.241 168.685C452.008 167.452 451.135 164.656 452.252 162.321L460.872 144.282C461.528 142.909 462.672 141.898 464.103 141.445C465.499 140.999 466.978 141.145 468.263 141.856C469.547 142.567 470.475 143.745 470.88 145.181C471.292 146.645 471.11 148.178 470.37 149.496L460.544 166.866C459.671 168.407 458.108 169.271 456.489 169.271H456.482ZM465.701 142.588C465.303 142.588 464.906 142.651 464.515 142.776C463.461 143.111 462.609 143.864 462.121 144.888L453.501 162.928C452.706 164.601 453.32 166.594 454.911 167.473C456.482 168.337 458.415 167.772 459.315 166.183L469.142 148.813C469.7 147.823 469.84 146.666 469.526 145.564C469.219 144.491 468.528 143.606 467.572 143.076C466.985 142.748 466.343 142.588 465.694 142.588H465.701Z" fill="#13367D"/>
<path d="M463.231 170.727C465.101 171.836 467.488 171.229 468.633 169.347L477.824 154.312C479.234 152.005 478.501 148.945 476.205 147.578C473.909 146.212 470.971 147.084 469.735 149.502L461.681 165.221C460.676 167.186 461.353 169.619 463.224 170.727H463.231Z" fill="white"/>
<path d="M465.241 171.982C464.438 171.982 463.622 171.773 462.868 171.327C460.676 170.023 459.881 167.2 461.06 164.9L469.114 149.182C469.805 147.83 470.985 146.854 472.415 146.442C473.825 146.038 475.291 146.226 476.561 146.979C477.824 147.732 478.711 148.938 479.074 150.388C479.437 151.865 479.206 153.385 478.418 154.675L469.226 169.71C468.333 171.174 466.804 171.982 465.241 171.982ZM463.587 170.128C465.129 171.048 467.083 170.546 468.039 168.985L477.231 153.95C477.824 152.981 477.999 151.838 477.72 150.729C477.448 149.649 476.784 148.743 475.849 148.185C474.921 147.634 473.839 147.488 472.806 147.788C471.745 148.094 470.873 148.819 470.357 149.823L462.302 165.541C461.458 167.187 462.023 169.208 463.58 170.135L463.587 170.128Z" fill="#13367D"/>
<path d="M441.092 144.331L440.262 149.977C440.262 149.977 440.904 155.037 444.812 153.748C448.721 152.451 444.17 157.979 444.17 157.979C444.17 157.979 444.777 161.617 445.454 162.747L433.464 157.184L435.432 145.348L441.099 144.338L441.092 144.331Z" fill="white"/>
<path d="M446.096 162.823C447.995 163.875 450.361 163.185 451.45 161.269L461.276 143.898C462.609 141.535 461.779 138.503 459.441 137.213C457.103 135.924 454.192 136.879 453.02 139.332L444.4 157.372C443.451 159.366 444.198 161.777 446.103 162.823H446.096Z" fill="white"/>
<path d="M448.002 164.015C447.248 164.015 446.473 163.827 445.761 163.43C443.528 162.196 442.656 159.401 443.765 157.066L452.385 139.026C453.041 137.653 454.186 136.642 455.616 136.182C457.012 135.736 458.492 135.882 459.776 136.593C461.06 137.304 461.988 138.482 462.393 139.918C462.805 141.382 462.623 142.916 461.884 144.233L452.057 161.603C451.184 163.144 449.621 164.008 448.002 164.008V164.015ZM446.438 162.21C448.009 163.074 449.942 162.51 450.842 160.92L460.669 143.55C461.228 142.56 461.367 141.403 461.053 140.302C460.746 139.228 460.055 138.343 459.099 137.82C458.15 137.297 457.068 137.186 456.042 137.513C454.988 137.848 454.137 138.601 453.648 139.626L445.029 157.665C444.233 159.331 444.847 161.332 446.438 162.21Z" fill="#13367D"/>
<path d="M448.888 142.874L448.023 150.751C447.541 152.807 445.517 154.117 443.437 153.713C441.358 153.309 439.976 151.329 440.311 149.245L441.092 144.324" fill="white"/>
<path d="M444.205 154.494C443.905 154.494 443.605 154.466 443.305 154.403C440.848 153.922 439.229 151.608 439.62 149.14L440.401 144.219C440.464 143.836 440.82 143.578 441.204 143.641C441.588 143.703 441.846 144.059 441.783 144.435L441.002 149.356C440.722 151.085 441.853 152.695 443.57 153.03C445.273 153.364 446.92 152.312 447.332 150.632L448.19 142.797C448.232 142.414 448.581 142.135 448.958 142.184C449.342 142.226 449.614 142.567 449.572 142.951L448.693 150.911C448.197 153.051 446.313 154.487 444.198 154.487L444.205 154.494Z" fill="#13367D"/>
<path d="M437.973 144.917L449.705 142.728H449.719C452.162 142.268 453.781 139.849 453.383 137.277C453.006 134.893 451.191 133.764 448.937 133.764C448.763 133.764 448.525 133.75 448.344 133.764L443.074 133.834C440.967 134.099 438.95 134.844 437.198 136.009C436.577 136.42 435.99 136.88 435.439 137.389C434.134 138.595 433.087 140.03 432.347 141.606C431.607 143.181 431.161 144.896 431.063 146.666L430.735 152.298C430.707 152.772 430.707 153.239 430.728 153.707C430.84 156.076 431.559 158.384 432.829 160.398L438.657 169.627C438.294 186.963 437.163 200.639 434.308 210.565" fill="white"/>
<path d="M434.301 211.261C434.239 211.261 434.176 211.254 434.106 211.233C433.736 211.129 433.52 210.738 433.631 210.369C436.214 201.405 437.547 188.893 437.952 169.822L432.236 160.767C430.909 158.662 430.149 156.229 430.03 153.734C430.009 153.218 430.009 152.73 430.037 152.249L430.365 146.617C430.47 144.777 430.923 142.992 431.712 141.299C432.501 139.619 433.596 138.127 434.964 136.865C435.544 136.336 436.165 135.848 436.814 135.416C438.643 134.196 440.778 133.408 442.991 133.129H443.067L448.309 133.053C448.462 133.039 448.637 133.039 448.797 133.046H448.944C451.75 133.046 453.669 134.586 454.074 137.151C454.534 140.121 452.678 142.867 449.851 143.397L449.774 143.411L438.105 145.585C437.721 145.648 437.365 145.404 437.289 145.028C437.219 144.651 437.47 144.282 437.847 144.212L449.656 142.01C451.708 141.591 453.041 139.563 452.699 137.36C452.406 135.499 451.038 134.433 448.944 134.433H448.762C448.651 134.433 448.525 134.419 448.427 134.433H448.358L443.123 134.509C441.141 134.767 439.229 135.478 437.582 136.566C436.995 136.956 436.43 137.395 435.907 137.876C434.671 139.019 433.68 140.365 432.975 141.877C432.256 143.404 431.845 145.021 431.754 146.68L431.426 152.312C431.398 152.744 431.398 153.183 431.426 153.65C431.531 155.902 432.222 158.097 433.422 160L439.361 169.404V169.613C438.957 188.928 437.603 201.607 434.978 210.724C434.888 211.031 434.608 211.226 434.308 211.226L434.301 211.261Z" fill="#13367D"/>
<path d="M442.6 167.375C444.847 167.375 444.847 163.89 442.6 163.89C440.352 163.89 440.352 167.375 442.6 167.375Z" fill="white"/>
<path d="M198.373 292.808L195.895 290.055C194.821 288.87 193.034 288.675 191.736 289.609L188.309 292.07V277.264H180.339C179.131 277.264 178.154 276.288 178.154 275.083V249.104C178.154 247.898 179.131 246.922 180.339 246.922H206.35C207.558 246.922 208.535 247.898 208.535 249.104V275.083C208.535 276.288 207.558 277.264 206.35 277.264H198.38V292.802L198.373 292.808ZM180.332 248.323C179.899 248.323 179.543 248.678 179.543 249.111V275.09C179.543 275.522 179.899 275.877 180.332 275.877H189.698V289.358L190.919 288.487C192.797 287.141 195.379 287.413 196.935 289.128L196.984 289.184V275.884H206.35C206.783 275.884 207.139 275.529 207.139 275.097V249.118C207.139 248.685 206.783 248.33 206.35 248.33H180.339L180.332 248.323ZM201.046 269.799H185.629V254.408H201.046V269.799ZM187.025 268.405H199.65V255.802H187.025V268.405Z" fill="#13367D"/>
<path d="M325.71 175.726H262.666C260.211 175.726 258.221 177.714 258.221 180.166V243.13C258.221 245.582 260.211 247.57 262.666 247.57H325.71C328.166 247.57 330.156 245.582 330.156 243.13V180.166C330.156 177.714 328.166 175.726 325.71 175.726Z" stroke="#BDE5FF" stroke-width="1.71601" stroke-miterlimit="10" stroke-linecap="round"/>
<path d="M277.065 185.289H268.508C268.227 185.289 267.999 185.517 267.999 185.798V194.344C267.999 194.625 268.227 194.853 268.508 194.853H277.065C277.346 194.853 277.574 194.625 277.574 194.344V185.798C277.574 185.517 277.346 185.289 277.065 185.289Z" stroke="#BDE5FF" stroke-width="1.71601" stroke-miterlimit="10" stroke-linecap="round"/>
<path d="M277.065 206.862H268.508C268.227 206.862 267.999 207.09 267.999 207.371V215.917C267.999 216.198 268.227 216.426 268.508 216.426H277.065C277.346 216.426 277.574 216.198 277.574 215.917V207.371C277.574 207.09 277.346 206.862 277.065 206.862Z" stroke="#BDE5FF" stroke-width="1.71601" stroke-miterlimit="10" stroke-linecap="round"/>
<path d="M277.065 228.443H268.508C268.227 228.443 267.999 228.671 267.999 228.952V237.498C267.999 237.779 268.227 238.007 268.508 238.007H277.065C277.346 238.007 277.574 237.779 277.574 237.498V228.952C277.574 228.671 277.346 228.443 277.065 228.443Z" stroke="#BDE5FF" stroke-width="1.71601" stroke-miterlimit="10" stroke-linecap="round"/>
<path d="M298.568 185.289H290.012C289.73 185.289 289.502 185.517 289.502 185.798V194.344C289.502 194.625 289.73 194.853 290.012 194.853H298.568C298.85 194.853 299.078 194.625 299.078 194.344V185.798C299.078 185.517 298.85 185.289 298.568 185.289Z" stroke="#BDE5FF" stroke-width="1.71601" stroke-miterlimit="10" stroke-linecap="round"/>
<path d="M298.568 206.862H290.011C289.73 206.862 289.502 207.09 289.502 207.371V215.917C289.502 216.198 289.73 216.426 290.011 216.426H298.568C298.849 216.426 299.078 216.198 299.078 215.917V207.371C299.078 207.09 298.849 206.862 298.568 206.862Z" stroke="#BDE5FF" stroke-width="1.71601" stroke-miterlimit="10" stroke-linecap="round"/>
<path d="M298.568 228.443H290.011C289.73 228.443 289.502 228.671 289.502 228.952V237.498C289.502 237.779 289.73 238.007 290.011 238.007H298.568C298.849 238.007 299.078 237.779 299.078 237.498V228.952C299.078 228.671 298.849 228.443 298.568 228.443Z" stroke="#BDE5FF" stroke-width="1.71601" stroke-miterlimit="10" stroke-linecap="round"/>
<path d="M315.8 183.77H315.793C312.308 183.77 309.484 186.591 309.484 190.071V190.078C309.484 193.558 312.308 196.379 315.793 196.379H315.8C319.284 196.379 322.109 193.558 322.109 190.078V190.071C322.109 186.591 319.284 183.77 315.8 183.77Z" stroke="#BDE5FF" stroke-width="1.71601" stroke-miterlimit="10" stroke-linecap="round"/>
<path d="M320.071 206.862H311.515C311.233 206.862 311.005 207.09 311.005 207.371V215.917C311.005 216.198 311.233 216.426 311.515 216.426H320.071C320.353 216.426 320.581 216.198 320.581 215.917V207.371C320.581 207.09 320.353 206.862 320.071 206.862Z" stroke="#BDE5FF" stroke-width="1.71601" stroke-miterlimit="10" stroke-linecap="round"/>
<path d="M320.071 228.443H311.515C311.233 228.443 311.005 228.671 311.005 228.952V237.498C311.005 237.779 311.233 238.007 311.515 238.007H320.071C320.353 238.007 320.581 237.779 320.581 237.498V228.952C320.581 228.671 320.353 228.443 320.071 228.443Z" stroke="#BDE5FF" stroke-width="1.71601" stroke-miterlimit="10" stroke-linecap="round"/>
<path d="M313.553 190.231L315.2 191.876L318.501 188.579" stroke="#BDE5FF" stroke-width="1.71601" stroke-miterlimit="10" stroke-linecap="round"/>
<path d="M164.049 129.504H101.005C98.5496 129.504 96.5592 131.492 96.5592 133.945V196.909C96.5592 199.361 98.5496 201.349 101.005 201.349H164.049C166.504 201.349 168.495 199.361 168.495 196.909V133.945C168.495 131.492 166.504 129.504 164.049 129.504Z" stroke="#BDE5FF" stroke-width="1.71601" stroke-miterlimit="10" stroke-linecap="round"/>
<path d="M128.385 162.67C130.601 162.67 132.398 160.875 132.398 158.662C132.398 156.448 130.601 154.654 128.385 154.654C126.168 154.654 124.372 156.448 124.372 158.662C124.372 160.875 126.168 162.67 128.385 162.67Z" stroke="#BDE5FF" stroke-width="1.71601" stroke-miterlimit="10" stroke-linecap="round"/>
<path d="M137.925 178.89C140.142 178.89 141.939 177.096 141.939 174.882C141.939 172.668 140.142 170.874 137.925 170.874C135.709 170.874 133.912 172.668 133.912 174.882C133.912 177.096 135.709 178.89 137.925 178.89Z" stroke="#BDE5FF" stroke-width="1.71601" stroke-miterlimit="10" stroke-linecap="round"/>
<path d="M141.939 156.194L124.372 178.026" stroke="#BDE5FF" stroke-width="1.71601" stroke-miterlimit="10" stroke-linecap="round"/>
<path d="M139.859 191.591L132.53 194.372L125.202 191.591C114.328 187.457 107.14 177.05 107.14 165.43V140.072C117.001 143.62 126.382 146.269 132.265 142.323C140.494 145.788 149.071 144.714 157.928 140.072V165.43C157.928 177.05 150.739 187.464 139.866 191.591H139.859Z" stroke="#BDE5FF" stroke-width="1.71601" stroke-linecap="round" stroke-linejoin="round"/>
<path d="M59.4571 236.647H6.19109C3.73573 236.647 1.74527 238.635 1.74527 241.087V294.286C1.74527 296.738 3.73573 298.726 6.19109 298.726H59.4571C61.9125 298.726 63.9029 296.738 63.9029 294.286V241.087C63.9029 238.635 61.9125 236.647 59.4571 236.647Z" stroke="#BDE5FF" stroke-width="1.71601" stroke-miterlimit="10" stroke-linecap="round"/>
<path d="M22.9764 264.515C28.8084 264.515 33.5361 259.793 33.5361 253.969C33.5361 248.144 28.8084 243.422 22.9764 243.422C17.1444 243.422 12.4167 248.144 12.4167 253.969C12.4167 259.793 17.1444 264.515 22.9764 264.515Z" stroke="#BDE5FF" stroke-width="1.71601" stroke-miterlimit="10" stroke-linecap="round"/>
<path d="M63.9029 260.981H54.7252V282.931H63.9029V260.981Z" stroke="#BDE5FF" stroke-width="1.71601" stroke-miterlimit="10" stroke-linecap="round"/>
<path d="M54.7253 277.912H48.3113L35.0018 285.008C33.3547 285.886 31.3586 285.809 29.7813 284.813L11.5443 273.262C8.42459 270.99 11.3629 265.672 15.6412 268.279L27.0454 274.747H37.7935C40.648 274.747 40.4386 278.365 37.7935 278.365" stroke="#BDE5FF" stroke-width="1.71601" stroke-linecap="round" stroke-linejoin="round"/>
<path d="M29.6346 274.741V272.587C29.6346 270.698 31.1701 269.164 33.0615 269.164H42.1974C42.1974 269.164 45.5544 263.023 54.7322 263.023" stroke="#BDE5FF" stroke-width="1.71601" stroke-linecap="round" stroke-linejoin="round"/>
<path d="M19.6402 259.126V248.803L26.2636 259.126V248.803" stroke="#BDE5FF" stroke-width="1.28701" stroke-linecap="round" stroke-linejoin="round"/>
<path d="M17.2813 252.854H28.162" stroke="#BDE5FF" stroke-width="1.28701" stroke-linecap="round" stroke-linejoin="round"/>
<path d="M17.2813 255.077H28.162" stroke="#BDE5FF" stroke-width="1.28701" stroke-linecap="round" stroke-linejoin="round"/>
<path d="M204.033 22.584H140.989C138.534 22.584 136.543 24.5719 136.543 27.0242V89.9884C136.543 92.4407 138.534 94.4286 140.989 94.4286H204.033C206.489 94.4286 208.479 92.4407 208.479 89.9884V27.0242C208.479 24.5719 206.489 22.584 204.033 22.584Z" stroke="#BDE5FF" stroke-width="1.71601" stroke-miterlimit="10" stroke-linecap="round"/>
<path d="M155.101 49.6855H150.46V76.3267H155.101V49.6855Z" stroke="#BDE5FF" stroke-width="1.71601" stroke-linecap="round" stroke-linejoin="round"/>
<path d="M158.005 46.6602H147.557V49.6853H158.005V46.6602Z" stroke="#BDE5FF" stroke-width="1.71601" stroke-linecap="round" stroke-linejoin="round"/>
<path d="M158.005 76.3267H147.557V79.3518H158.005V76.3267Z" stroke="#BDE5FF" stroke-width="1.71601" stroke-linecap="round" stroke-linejoin="round"/>
<path d="M174.308 49.6855H169.667V76.3267H174.308V49.6855Z" stroke="#BDE5FF" stroke-width="1.71601" stroke-linecap="round" stroke-linejoin="round"/>
<path d="M177.205 46.6602H166.757V49.6853H177.205V46.6602Z" stroke="#BDE5FF" stroke-width="1.71601" stroke-linecap="round" stroke-linejoin="round"/>
<path d="M177.205 76.3267H166.757V79.3518H177.205V76.3267Z" stroke="#BDE5FF" stroke-width="1.71601" stroke-linecap="round" stroke-linejoin="round"/>
<path d="M188.867 76.3267H193.509V49.6855H188.867V76.3267Z" stroke="#BDE5FF" stroke-width="1.71601" stroke-linecap="round" stroke-linejoin="round"/>
<path d="M185.964 49.686H196.412V46.6609H185.964V49.686Z" stroke="#BDE5FF" stroke-width="1.71601" stroke-linecap="round" stroke-linejoin="round"/>
<path d="M185.964 79.3521H196.412V76.3269H185.964V79.3521Z" stroke="#BDE5FF" stroke-width="1.71601" stroke-linecap="round" stroke-linejoin="round"/>
<path d="M199.636 83.9381V79.3516H144.339V83.9381H199.636Z" stroke="#BDE5FF" stroke-width="1.71601" stroke-linecap="round" stroke-linejoin="round"/>
<path d="M199.629 42.7985L171.984 28.7251L144.332 42.7985V46.6601H199.629V42.7985Z" stroke="#BDE5FF" stroke-width="1.71601" stroke-linecap="round" stroke-linejoin="round"/>
<path d="M171.984 40.0244C173.649 40.0244 174.999 38.6763 174.999 37.0132C174.999 35.3501 173.649 34.002 171.984 34.002C170.319 34.002 168.969 35.3501 168.969 37.0132C168.969 38.6763 170.319 40.0244 171.984 40.0244Z" stroke="#BDE5FF" stroke-width="1.71601" stroke-linecap="round" stroke-linejoin="round"/>
</svg>
